<svg baseProfile="full" height="100%" version="1.1" viewBox="0,0,1400,900" width="100%" xmlns="http://www.w3.org/2000/svg" xmlns:ev="http://www.w3.org/2001/xml-events" xmlns:xlink="http://www.w3.org/1999/xlink"><defs /><g id="My.Chr1" stroke="green"><rect fill="none" height="579.0894" stroke="#333300" stroke-width="2px" width="20.0" x="90.0" y="50" /><text fill="black" font-size="16" stroke-width="0" x="85.0" y="30">My.Chr1</text><polyline fill="none" points="115.0,428.1088 120.0,428.1088 125.0,418.1088 130.0,418.1088" stroke="blue" /><text fill="black" font-size="13" stroke-width="0" x="135.0" y="418.1088">block0</text><rect fill="#bacac6" height="6.982220000000041" opacity="0.5" stroke="black" stroke-width="0" width="8.0" x="91.0" y="423.1088" /><polyline fill="none" points="115.0,255.95338 120.0,255.95338 125.0,245.95338 130.0,245.95338" stroke="blue" /><text fill="black" font-size="13" stroke-width="0" x="135.0" y="245.95338">block1</text><rect fill="#44cef6" height="11.664079999999984" opacity="0.5" stroke="black" stroke-width="0" width="8.0" x="91.0" y="250.95338" /><polyline fill="none" points="115.0,267.67448 120.0,267.67448 125.0,257.67448 130.0,257.67448" stroke="blue" /><text fill="black" font-size="13" stroke-width="0" x="135.0" y="257.67448">block2</text><rect fill="#44cef6" height="6.820819999999998" opacity="0.5" stroke="black" stroke-width="0" width="8.0" x="91.0" y="262.67448" /><polyline fill="none" points="115.0,274.59454 120.0,274.59454 125.0,264.59454 130.0,264.59454" stroke="blue" /><text fill="black" font-size="13" stroke-width="0" x="135.0" y="264.59454">block3</text><rect fill="#44cef6" height="11.030280000000005" opacity="0.5" stroke="black" stroke-width="0" width="8.0" x="91.0" y="269.59454" /><polyline fill="none" points="115.0,56.39184 120.0,56.39184 125.0,46.39184 130.0,46.39184" stroke="blue" /><text fill="black" font-size="13" stroke-width="0" x="135.0" y="46.39184">block4</text><rect fill="#44cef6" height="9.7113" opacity="0.5" stroke="black" stroke-width="0" width="8.0" x="91.0" y="51.39184" /><polyline fill="none" points="115.0,152.49903999999998 120.0,152.49903999999998 125.0,142.49903999999998 130.0,142.49903999999998" stroke="blue" /><text fill="black" font-size="13" stroke-width="0" x="135.0" y="142.49903999999998">block5</text><rect fill="#4b5cc4" height="67.16594000000002" opacity="0.5" stroke="black" stroke-width="0" width="8.0" x="91.0" y="147.49903999999998" /><polyline fill="none" points="115.0,379.44892 120.0,379.44892 125.0,369.44892 130.0,369.44892" stroke="blue" /><text fill="black" font-size="13" stroke-width="0" x="135.0" y="369.44892">block6</text><rect fill="#e29c45" height="22.96526" opacity="0.5" stroke="black" stroke-width="0" width="8.0" x="91.0" y="374.44892" /><polyline fill="none" points="115.0,399.34836 120.0,399.34836 125.0,389.34836 130.0,389.34836" stroke="blue" /><text fill="black" font-size="13" stroke-width="0" x="135.0" y="389.34836">block7</text><rect fill="#e29c45" height="8.101220000000012" opacity="0.5" stroke="black" stroke-width="0" width="8.0" x="91.0" y="394.34836" /><polyline fill="none" points="115.0,367.15862 120.0,367.15862 125.0,357.15862 130.0,357.15862" stroke="blue" /><text fill="black" font-size="13" stroke-width="0" x="135.0" y="357.15862">block8</text><rect fill="#e29c45" height="12.14846" opacity="0.5" stroke="black" stroke-width="0" width="8.0" x="91.0" y="362.15862" /><polyline fill="none" points="115.0,462.75592 120.0,462.75592 125.0,452.75592 130.0,452.75592" stroke="blue" /><text fill="black" font-size="13" stroke-width="0" x="135.0" y="452.75592">block10</text><rect fill="#7fecad" height="21.85183999999998" opacity="0.5" stroke="black" stroke-width="0" width="8.0" x="91.0" y="457.75592" /><polyline fill="none" points="115.0,484.98476 120.0,484.98476 125.0,474.98476 130.0,474.98476" stroke="blue" /><text fill="black" font-size="13" stroke-width="0" x="135.0" y="474.98476">block9</text><rect fill="#7fecad" height="14.156220000000019" opacity="0.5" stroke="black" stroke-width="0" width="8.0" x="91.0" y="479.98476" /><rect fill="none" height="579.0894" stroke="#333300" stroke-width="2px" width="20.0" x="90.0" y="50" /></g><g id="My.Chr2" stroke="green"><rect fill="none" height="613.047" stroke="#333300" stroke-width="2px" width="20.0" x="190.0" y="50" /><text fill="black" font-size="16" stroke-width="0" x="185.0" y="30">My.Chr2</text><polyline fill="none" points="215.0,98.44767999999999 220.0,98.44767999999999 225.0,88.44767999999999 230.0,88.44767999999999" stroke="blue" /><text fill="black" font-size="13" stroke-width="0" x="235.0" y="88.44767999999999">block38</text><rect fill="#be002f" height="41.99308" opacity="0.5" stroke="black" stroke-width="0" width="8.0" x="191.0" y="93.44767999999999" /><polyline fill="none" points="215.0,60.3307 220.0,60.3307 225.0,50.3307 230.0,50.3307" stroke="blue" /><text fill="black" font-size="13" stroke-width="0" x="235.0" y="50.3307">block39</text><rect fill="#be002f" height="10.55526" opacity="0.5" stroke="black" stroke-width="0" width="8.0" x="191.0" y="55.3307" /><polyline fill="none" points="215.0,91.22004 220.0,91.22004 225.0,81.22004 230.0,81.22004" stroke="blue" /><text fill="black" font-size="13" stroke-width="0" x="235.0" y="81.22004">block40</text><rect fill="#be002f" height="6.0548" opacity="0.5" stroke="black" stroke-width="0" width="8.0" x="191.0" y="86.22004" /><polyline fill="none" points="215.0,81.21791999999999 220.0,81.21791999999999 225.0,71.21791999999999 230.0,71.21791999999999" stroke="blue" /><text fill="black" font-size="13" stroke-width="0" x="235.0" y="71.21791999999999">block41</text><rect fill="#be002f" height="5.622320000000002" opacity="0.5" stroke="black" stroke-width="0" width="8.0" x="191.0" y="76.21791999999999" /><polyline fill="none" points="215.0,199.04706 220.0,199.04706 225.0,189.04706 230.0,189.04706" stroke="blue" /><text fill="black" font-size="13" stroke-width="0" x="235.0" y="189.04706">block42</text><rect fill="#801dae" height="44.449580000000026" opacity="0.5" stroke="black" stroke-width="0" width="8.0" x="191.0" y="194.04706" /><polyline fill="none" points="215.0,483.09002 220.0,483.09002 225.0,473.09002 230.0,473.09002" stroke="blue" /><text fill="black" font-size="13" stroke-width="0" x="235.0" y="473.09002">block43</text><rect fill="#801dae" height="22.214980000000025" opacity="0.5" stroke="black" stroke-width="0" width="8.0" x="191.0" y="478.09002" /><polyline fill="none" points="215.0,339.95238 220.0,339.95238 225.0,329.95238 230.0,329.95238" stroke="blue" /><text fill="black" font-size="13" stroke-width="0" x="235.0" y="329.95238">block44</text><rect fill="#801dae" height="12.694199999999967" opacity="0.5" stroke="black" stroke-width="0" width="8.0" x="191.0" y="334.95238" /><polyline fill="none" points="215.0,262.28772000000004 220.0,262.28772000000004 225.0,252.28772000000004 230.0,252.28772000000004" stroke="blue" /><text fill="black" font-size="13" stroke-width="0" x="235.0" y="252.28772000000004">block45</text><rect fill="#801dae" height="16.716859999999997" opacity="0.5" stroke="black" stroke-width="0" width="8.0" x="191.0" y="257.28772000000004" /><polyline fill="none" points="215.0,411.14442 220.0,411.14442 225.0,401.14442 230.0,401.14442" stroke="blue" /><text fill="black" font-size="13" stroke-width="0" x="235.0" y="401.14442">block46</text><rect fill="#c89b40" height="11.579160000000002" opacity="0.5" stroke="black" stroke-width="0" width="8.0" x="191.0" y="406.14442" /><polyline fill="none" points="215.0,526.78928 220.0,526.78928 225.0,516.78928 230.0,516.78928" stroke="blue" /><text fill="black" font-size="13" stroke-width="0" x="235.0" y="516.78928">block47</text><rect fill="#c89b40" height="13.930379999999957" opacity="0.5" stroke="black" stroke-width="0" width="8.0" x="191.0" y="521.78928" /><polyline fill="none" points="215.0,439.62104 220.0,439.62104 225.0,429.62104 230.0,429.62104" stroke="blue" /><text fill="black" font-size="13" stroke-width="0" x="235.0" y="429.62104">block48</text><rect fill="#c89b40" height="6.658079999999984" opacity="0.5" stroke="black" stroke-width="0" width="8.0" x="191.0" y="434.62104" /><polyline fill="none" points="215.0,419.1847 220.0,419.1847 225.0,409.1847 230.0,409.1847" stroke="blue" /><text fill="black" font-size="13" stroke-width="0" x="235.0" y="409.1847">block49</text><rect fill="#c89b40" height="17.237559999999974" opacity="0.5" stroke="black" stroke-width="0" width="8.0" x="191.0" y="414.1847" /><polyline fill="none" points="215.0,420.86474 220.0,420.86474 225.0,410.86474 230.0,410.86474" stroke="blue" /><text fill="black" font-size="13" stroke-width="0" x="235.0" y="410.86474">block50</text><rect fill="#ae7000" height="18.87657999999999" opacity="0.5" stroke="black" stroke-width="0" width="8.0" x="191.0" y="415.86474" /><polyline fill="none" points="215.0,549.5263600000001 220.0,549.5263600000001 225.0,539.5263600000001 230.0,539.5263600000001" stroke="blue" /><text fill="black" font-size="13" stroke-width="0" x="235.0" y="539.5263600000001">block51</text><rect fill="#2edfa3" height="39.954440000000034" opacity="0.5" stroke="black" stroke-width="0" width="8.0" x="191.0" y="544.5263600000001" /><polyline fill="none" points="215.0,192.53242 220.0,192.53242 225.0,182.53242 230.0,182.53242" stroke="blue" /><text fill="black" font-size="13" stroke-width="0" x="235.0" y="182.53242">block52</text><rect fill="#2edfa3" height="7.787720000000007" opacity="0.5" stroke="black" stroke-width="0" width="8.0" x="191.0" y="187.53242" /><polyline fill="none" points="215.0,355.49044 220.0,355.49044 225.0,345.49044 230.0,345.49044" stroke="blue" /><text fill="black" font-size="13" stroke-width="0" x="235.0" y="345.49044">block53</text><rect fill="#2edfa3" height="24.146100000000047" opacity="0.5" stroke="black" stroke-width="0" width="8.0" x="191.0" y="350.49044" /><polyline fill="none" points="215.0,159.02190000000002 220.0,159.02190000000002 225.0,149.02190000000002 230.0,149.02190000000002" stroke="blue" /><text fill="black" font-size="13" stroke-width="0" x="235.0" y="149.02190000000002">block54</text><rect fill="#2edfa3" height="16.59931999999999" opacity="0.5" stroke="black" stroke-width="0" width="8.0" x="191.0" y="154.02190000000002" /><rect fill="none" height="613.047" stroke="#333300" stroke-width="2px" width="20.0" x="190.0" y="50" /></g><g id="My.Chr3" stroke="green"><rect fill="none" height="504.23164" stroke="#333300" stroke-width="2px" width="20.0" x="290.0" y="50" /><text fill="black" font-size="16" stroke-width="0" x="285.0" y="30">My.Chr3</text><polyline fill="none" points="315.0,255.38438 320.0,255.38438 325.0,245.38438 330.0,245.38438" stroke="blue" /><text fill="black" font-size="13" stroke-width="0" x="335.0" y="245.38438">block55</text><rect fill="#16a951" height="19.683639999999997" opacity="0.5" stroke="black" stroke-width="0" width="8.0" x="291.0" y="250.38438" /><polyline fill="none" points="315.0,95.3012 320.0,95.3012 325.0,85.3012 330.0,85.3012" stroke="blue" /><text fill="black" font-size="13" stroke-width="0" x="335.0" y="85.3012">block56</text><rect fill="#8d4bbb" height="15.209319999999998" opacity="0.5" stroke="black" stroke-width="0" width="8.0" x="291.0" y="90.3012" /><polyline fill="none" points="315.0,304.08164 320.0,304.08164 325.0,294.08164 330.0,294.08164" stroke="blue" /><text fill="black" font-size="13" stroke-width="0" x="335.0" y="294.08164">block57</text><rect fill="#801dae" height="29.506140000000016" opacity="0.5" stroke="black" stroke-width="0" width="8.0" x="291.0" y="299.08164" /><polyline fill="none" points="315.0,206.03028 320.0,206.03028 325.0,196.03028 330.0,196.03028" stroke="blue" /><text fill="black" font-size="13" stroke-width="0" x="335.0" y="196.03028">block58</text><rect fill="#808080" height="10.751419999999996" opacity="0.5" stroke="black" stroke-width="0" width="8.0" x="291.0" y="201.03028" /><polyline fill="none" points="315.0,219.94766 320.0,219.94766 325.0,209.94766 330.0,209.94766" stroke="blue" /><text fill="black" font-size="13" stroke-width="0" x="335.0" y="209.94766">block59</text><rect fill="#808080" height="4.0129599999999925" opacity="0.5" stroke="black" stroke-width="0" width="8.0" x="291.0" y="214.94766" /><polyline fill="none" points="315.0,232.15174 320.0,232.15174 325.0,222.15174 330.0,222.15174" stroke="blue" /><text fill="black" font-size="13" stroke-width="0" x="335.0" y="222.15174">block60</text><rect fill="#808080" height="20.23994000000002" opacity="0.5" stroke="black" stroke-width="0" width="8.0" x="291.0" y="227.15174" /><polyline fill="none" points="315.0,458.12962 320.0,458.12962 325.0,448.12962 330.0,448.12962" stroke="blue" /><text fill="black" font-size="13" stroke-width="0" x="335.0" y="448.12962">block61</text><rect fill="#e29c45" height="7.9493400000000065" opacity="0.5" stroke="black" stroke-width="0" width="8.0" x="291.0" y="453.12962" /><polyline fill="none" points="315.0,447.08496 320.0,447.08496 325.0,437.08496 330.0,437.08496" stroke="blue" /><text fill="black" font-size="13" stroke-width="0" x="335.0" y="437.08496">block62</text><rect fill="#e29c45" height="9.99975999999998" opacity="0.5" stroke="black" stroke-width="0" width="8.0" x="291.0" y="442.08496" /><rect fill="none" height="504.23164" stroke="#333300" stroke-width="2px" width="20.0" x="290.0" y="50" /></g><g id="My.Chr4" stroke="green"><rect fill="none" height="591.13686" stroke="#333300" stroke-width="2px" width="20.0" x="390.0" y="50" /><text fill="black" font-size="16" stroke-width="0" x="385.0" y="30">My.Chr4</text><polyline fill="none" points="415.0,481.01154 420.0,481.01154 425.0,471.01154 430.0,471.01154" stroke="blue" /><text fill="black" font-size="13" stroke-width="0" x="435.0" y="471.01154">block63</text><rect fill="#bacac6" height="7.613499999999988" opacity="0.5" stroke="black" stroke-width="0" width="8.0" x="391.0" y="476.01154" /><polyline fill="none" points="415.0,451.7008 420.0,451.7008 425.0,441.7008 430.0,441.7008" stroke="blue" /><text fill="black" font-size="13" stroke-width="0" x="435.0" y="441.7008">block64</text><rect fill="#bacac6" height="25.981779999999958" opacity="0.5" stroke="black" stroke-width="0" width="8.0" x="391.0" y="446.7008" /><polyline fill="none" points="415.0,541.85394 420.0,541.85394 425.0,531.85394 430.0,531.85394" stroke="blue" /><text fill="black" font-size="13" stroke-width="0" x="435.0" y="531.85394">block65</text><rect fill="#00bc12" height="14.874179999999967" opacity="0.5" stroke="black" stroke-width="0" width="8.0" x="391.0" y="536.85394" /><polyline fill="none" points="415.0,334.6044 420.0,334.6044 425.0,324.6044 430.0,324.6044" stroke="blue" /><text fill="black" font-size="13" stroke-width="0" x="435.0" y="324.6044">block66</text><rect fill="#f35336" height="14.75060000000002" opacity="0.5" stroke="black" stroke-width="0" width="8.0" x="391.0" y="329.6044" /><polyline fill="none" points="415.0,323.96086 420.0,323.96086 425.0,313.96086 430.0,313.96086" stroke="blue" /><text fill="black" font-size="13" stroke-width="0" x="435.0" y="313.96086">block67</text><rect fill="#f35336" height="8.53583999999995" opacity="0.5" stroke="black" stroke-width="0" width="8.0" x="391.0" y="318.96086" /><polyline fill="none" points="415.0,310.59348 420.0,310.59348 425.0,300.59348 430.0,300.59348" stroke="blue" /><text fill="black" font-size="13" stroke-width="0" x="435.0" y="300.59348">block68</text><rect fill="#f35336" height="12.183699999999988" opacity="0.5" stroke="black" stroke-width="0" width="8.0" x="391.0" y="305.59348" /><polyline fill="none" points="415.0,572.00654 420.0,572.00654 425.0,562.00654 430.0,562.00654" stroke="blue" /><text fill="black" font-size="13" stroke-width="0" x="435.0" y="562.00654">block69</text><rect fill="#2edfa3" height="39.121399999999994" opacity="0.5" stroke="black" stroke-width="0" width="8.0" x="391.0" y="567.00654" /><polyline fill="none" points="415.0,596.24022 420.0,596.24022 425.0,586.24022 430.0,586.24022" stroke="blue" /><text fill="black" font-size="13" stroke-width="0" x="435.0" y="586.24022">block70</text><rect fill="#7fecad" height="21.528479999999945" opacity="0.5" stroke="black" stroke-width="0" width="8.0" x="391.0" y="591.24022" /><polyline fill="none" points="415.0,570.05782 420.0,570.05782 425.0,560.05782 430.0,560.05782" stroke="blue" /><text fill="black" font-size="13" stroke-width="0" x="435.0" y="560.05782">block71</text><rect fill="#7fecad" height="16.12080000000003" opacity="0.5" stroke="black" stroke-width="0" width="8.0" x="391.0" y="565.05782" /><polyline fill="none" points="415.0,253.1233 420.0,253.1233 425.0,243.1233 430.0,243.1233" stroke="blue" /><text fill="black" font-size="13" stroke-width="0" x="435.0" y="243.1233">block72</text><rect fill="#1bd1a5" height="33.1036" opacity="0.5" stroke="black" stroke-width="0" width="8.0" x="391.0" y="248.1233" /><rect fill="none" height="591.13686" stroke="#333300" stroke-width="2px" width="20.0" x="390.0" y="50" /></g><g id="My.Chr5" stroke="green"><rect fill="none" height="495.75772" stroke="#333300" stroke-width="2px" width="20.0" x="490.0" y="50" /><text fill="black" font-size="16" stroke-width="0" x="485.0" y="30">My.Chr5</text><polyline fill="none" points="515.0,368.96034 520.0,368.96034 525.0,358.96034 530.0,358.96034" stroke="blue" /><text fill="black" font-size="13" stroke-width="0" x="535.0" y="358.96034">block73</text><rect fill="#00bc12" height="30.60694000000001" opacity="0.5" stroke="black" stroke-width="0" width="8.0" x="491.0" y="363.96034" /><polyline fill="none" points="515.0,440.73512 520.0,440.73512 525.0,430.73512 530.0,430.73512" stroke="blue" /><text fill="black" font-size="13" stroke-width="0" x="535.0" y="430.73512">block74</text><rect fill="#00bc12" height="15.481740000000002" opacity="0.5" stroke="black" stroke-width="0" width="8.0" x="491.0" y="435.73512" /><polyline fill="none" points="515.0,349.53326 520.0,349.53326 525.0,339.53326 530.0,339.53326" stroke="blue" /><text fill="black" font-size="13" stroke-width="0" x="535.0" y="339.53326">block75</text><rect fill="#00bc12" height="15.78666000000004" opacity="0.5" stroke="black" stroke-width="0" width="8.0" x="491.0" y="344.53326" /><polyline fill="none" points="515.0,421.04688 520.0,421.04688 525.0,411.04688 530.0,411.04688" stroke="blue" /><text fill="black" font-size="13" stroke-width="0" x="535.0" y="411.04688">block76</text><rect fill="#00bc12" height="18.753480000000025" opacity="0.5" stroke="black" stroke-width="0" width="8.0" x="491.0" y="416.04688" /><polyline fill="none" points="515.0,460.47664 520.0,460.47664 525.0,450.47664 530.0,450.47664" stroke="blue" /><text fill="black" font-size="13" stroke-width="0" x="535.0" y="450.47664">block77</text><rect fill="#00bc12" height="13.234300000000019" opacity="0.5" stroke="black" stroke-width="0" width="8.0" x="491.0" y="455.47664" /><polyline fill="none" points="515.0,253.12332 520.0,253.12332 525.0,243.12332 530.0,243.12332" stroke="blue" /><text fill="black" font-size="13" stroke-width="0" x="535.0" y="243.12332">block78</text><rect fill="#ff3300" height="8.470699999999994" opacity="0.5" stroke="black" stroke-width="0" width="8.0" x="491.0" y="248.12332" /><polyline fill="none" points="515.0,237.21894 520.0,237.21894 525.0,227.21894 530.0,227.21894" stroke="blue" /><text fill="black" font-size="13" stroke-width="0" x="535.0" y="227.21894">block79</text><rect fill="#ff3300" height="7.629179999999991" opacity="0.5" stroke="black" stroke-width="0" width="8.0" x="491.0" y="232.21894" /><polyline fill="none" points="515.0,203.41732 520.0,203.41732 525.0,193.41732 530.0,193.41732" stroke="blue" /><text fill="black" font-size="13" stroke-width="0" x="535.0" y="193.41732">block80</text><rect fill="#ff3300" height="8.672760000000011" opacity="0.5" stroke="black" stroke-width="0" width="8.0" x="491.0" y="198.41732" /><polyline fill="none" points="515.0,283.61798 520.0,283.61798 525.0,273.61798 530.0,273.61798" stroke="blue" /><text fill="black" font-size="13" stroke-width="0" x="535.0" y="273.61798">block81</text><rect fill="#8d4bbb" height="16.673660000000012" opacity="0.5" stroke="black" stroke-width="0" width="8.0" x="491.0" y="278.61798" /><polyline fill="none" points="515.0,279.64486 520.0,279.64486 525.0,269.64486 530.0,269.64486" stroke="blue" /><text fill="black" font-size="13" stroke-width="0" x="535.0" y="269.64486">block82</text><rect fill="#56004f" height="44.478459999999984" opacity="0.5" stroke="black" stroke-width="0" width="8.0" x="491.0" y="274.64486" /><polyline fill="none" points="515.0,212.97964 520.0,212.97964 525.0,202.97964 530.0,202.97964" stroke="blue" /><text fill="black" font-size="13" stroke-width="0" x="535.0" y="202.97964">block83</text><rect fill="#56004f" height="11.291140000000013" opacity="0.5" stroke="black" stroke-width="0" width="8.0" x="491.0" y="207.97964" /><rect fill="none" height="495.75772" stroke="#333300" stroke-width="2px" width="20.0" x="490.0" y="50" /></g><g id="My.Chr6" stroke="green"><rect fill="none" height="456.0574" stroke="#333300" stroke-width="2px" width="20.0" x="590.0" y="50" /><text fill="black" font-size="16" stroke-width="0" x="585.0" y="30">My.Chr6</text><polyline fill="none" points="615.0,112.11536000000001 620.0,112.11536000000001 625.0,102.11536000000001 630.0,102.11536000000001" stroke="blue" /><text fill="black" font-size="13" stroke-width="0" x="635.0" y="102.11536000000001">block84</text><rect fill="#0eb83a" height="12.102600000000002" opacity="0.5" stroke="black" stroke-width="0" width="8.0" x="591.0" y="107.11536000000001" /><polyline fill="none" points="615.0,375.5717 620.0,375.5717 625.0,365.5717 630.0,365.5717" stroke="blue" /><text fill="black" font-size="13" stroke-width="0" x="635.0" y="365.5717">block85</text><rect fill="#16a951" height="26.332400000000007" opacity="0.5" stroke="black" stroke-width="0" width="8.0" x="591.0" y="370.5717" /><polyline fill="none" points="615.0,310.21144000000004 620.0,310.21144000000004 625.0,300.21144000000004 630.0,300.21144000000004" stroke="blue" /><text fill="black" font-size="13" stroke-width="0" x="635.0" y="300.21144000000004">block86</text><rect fill="#75878a" height="13.585180000000008" opacity="0.5" stroke="black" stroke-width="0" width="8.0" x="591.0" y="305.21144000000004" /><polyline fill="none" points="615.0,333.81482 620.0,333.81482 625.0,323.81482 630.0,323.81482" stroke="blue" /><text fill="black" font-size="13" stroke-width="0" x="635.0" y="323.81482">block87</text><rect fill="#75878a" height="41.47066000000001" opacity="0.5" stroke="black" stroke-width="0" width="8.0" x="591.0" y="328.81482" /><rect fill="none" height="456.0574" stroke="#333300" stroke-width="2px" width="20.0" x="590.0" y="50" /></g><g id="My.Chr7" stroke="green"><rect fill="none" height="220.82256" stroke="#333300" stroke-width="2px" width="20.0" x="690.0" y="50" /><text fill="black" font-size="16" stroke-width="0" x="685.0" y="30">My.Chr7</text><polyline fill="none" points="715.0,155.0 720.0,155.0 725.0,145.0 730.0,145.0" stroke="blue" /><text fill="black" font-size="13" stroke-width="0" x="735.0" y="145.0">block88</text><rect fill="#2edfa3" height="120.82256000000001" opacity="0.5" stroke="black" stroke-width="0" width="8.0" x="691.0" y="150.0" /><rect fill="none" height="220.82256" stroke="#333300" stroke-width="2px" width="20.0" x="690.0" y="50" /></g><g id="My.Chr8" stroke="green"><rect fill="none" height="371.41114" stroke="#333300" stroke-width="2px" width="20.0" x="790.0" y="50" /><text fill="black" font-size="16" stroke-width="0" x="785.0" y="30">My.Chr8</text><polyline fill="none" points="815.0,268.08344 820.0,268.08344 825.0,258.08344 830.0,258.08344" stroke="blue" /><text fill="black" font-size="13" stroke-width="0" x="835.0" y="258.08344">block91</text><rect fill="#0eb83a" height="21.319360000000017" opacity="0.5" stroke="black" stroke-width="0" width="8.0" x="791.0" y="263.08344" /><polyline fill="none" points="815.0,290.3761 820.0,290.3761 825.0,280.3761 830.0,280.3761" stroke="blue" /><text fill="black" font-size="13" stroke-width="0" x="835.0" y="280.3761">block92</text><rect fill="#0eb83a" height="20.664019999999994" opacity="0.5" stroke="black" stroke-width="0" width="8.0" x="791.0" y="285.3761" /><polyline fill="none" points="815.0,262.88696 820.0,262.88696 825.0,252.88696 830.0,252.88696" stroke="blue" /><text fill="black" font-size="13" stroke-width="0" x="835.0" y="252.88696">block93</text><rect fill="#0eb83a" height="4.223220000000026" opacity="0.5" stroke="black" stroke-width="0" width="8.0" x="791.0" y="257.88696" /><polyline fill="none" points="815.0,336.79126 820.0,336.79126 825.0,326.79126 830.0,326.79126" stroke="blue" /><text fill="black" font-size="13" stroke-width="0" x="835.0" y="326.79126">block94</text><rect fill="#ae7000" height="48.37985999999995" opacity="0.5" stroke="black" stroke-width="0" width="8.0" x="791.0" y="331.79126" /><polyline fill="none" points="815.0,125.90756 820.0,125.90756 825.0,115.90756 830.0,115.90756" stroke="blue" /><text fill="black" font-size="13" stroke-width="0" x="835.0" y="115.90756">block95</text><rect fill="#ae7000" height="25.66032" opacity="0.5" stroke="black" stroke-width="0" width="8.0" x="791.0" y="120.90756" /><rect fill="none" height="371.41114" stroke="#333300" stroke-width="2px" width="20.0" x="790.0" y="50" /></g><g id="My.Chr9" stroke="green"><rect fill="none" height="569.3331" stroke="#333300" stroke-width="2px" width="20.0" x="890.0" y="50" /><text fill="black" font-size="16" stroke-width="0" x="885.0" y="30">My.Chr9</text><polyline fill="none" points="915.0,318.30086 920.0,318.30086 925.0,308.30086 930.0,308.30086" stroke="blue" /><text fill="black" font-size="13" stroke-width="0" x="935.0" y="308.30086">block96</text><rect fill="#f35336" height="24.38058000000001" opacity="0.5" stroke="black" stroke-width="0" width="8.0" x="891.0" y="313.30086" /><polyline fill="none" points="915.0,278.04846 920.0,278.04846 925.0,268.04846 930.0,268.04846" stroke="blue" /><text fill="black" font-size="13" stroke-width="0" x="935.0" y="268.04846">block97</text><rect fill="#f35336" height="21.331500000000005" opacity="0.5" stroke="black" stroke-width="0" width="8.0" x="891.0" y="273.04846" /><polyline fill="none" points="915.0,302.84352 920.0,302.84352 925.0,292.84352 930.0,292.84352" stroke="blue" /><text fill="black" font-size="13" stroke-width="0" x="935.0" y="292.84352">block98</text><rect fill="#f35336" height="13.83099999999996" opacity="0.5" stroke="black" stroke-width="0" width="8.0" x="891.0" y="297.84352" /><polyline fill="none" points="915.0,110.34728 920.0,110.34728 925.0,100.34728 930.0,100.34728" stroke="blue" /><text fill="black" font-size="13" stroke-width="0" x="935.0" y="100.34728">block100</text><rect fill="#8d4bbb" height="8.859920000000002" opacity="0.5" stroke="black" stroke-width="0" width="8.0" x="891.0" y="105.34728" /><polyline fill="none" points="915.0,136.62279999999998 920.0,136.62279999999998 925.0,126.62279999999998 930.0,126.62279999999998" stroke="blue" /><text fill="black" font-size="13" stroke-width="0" x="935.0" y="126.62279999999998">block99</text><rect fill="#8d4bbb" height="32.159980000000004" opacity="0.5" stroke="black" stroke-width="0" width="8.0" x="891.0" y="131.62279999999998" /><polyline fill="none" points="915.0,466.612 920.0,466.612 925.0,456.612 930.0,456.612" stroke="blue" /><text fill="black" font-size="13" stroke-width="0" x="935.0" y="456.612">block101</text><rect fill="#56004f" height="10.643199999999979" opacity="0.5" stroke="black" stroke-width="0" width="8.0" x="891.0" y="461.612" /><polyline fill="none" points="915.0,67.85992 920.0,67.85992 925.0,57.85992 930.0,57.85992" stroke="blue" /><text fill="black" font-size="13" stroke-width="0" x="935.0" y="57.85992">block102</text><rect fill="#801dae" height="14.386999999999999" opacity="0.5" stroke="black" stroke-width="0" width="8.0" x="891.0" y="62.85992" /><polyline fill="none" points="915.0,258.88626 920.0,258.88626 925.0,248.88626 930.0,248.88626" stroke="blue" /><text fill="black" font-size="13" stroke-width="0" x="935.0" y="248.88626">block103</text><rect fill="#44cef6" height="12.694019999999995" opacity="0.5" stroke="black" stroke-width="0" width="8.0" x="891.0" y="253.88626" /><polyline fill="none" points="915.0,348.73892 920.0,348.73892 925.0,338.73892 930.0,338.73892" stroke="blue" /><text fill="black" font-size="13" stroke-width="0" x="935.0" y="338.73892">block104</text><rect fill="#177cb0" height="11.326439999999991" opacity="0.5" stroke="black" stroke-width="0" width="8.0" x="891.0" y="343.73892" /><polyline fill="none" points="915.0,374.66258 920.0,374.66258 925.0,364.66258 930.0,364.66258" stroke="blue" /><text fill="black" font-size="13" stroke-width="0" x="935.0" y="364.66258">block105</text><rect fill="#1bd1a5" height="16.069380000000024" opacity="0.5" stroke="black" stroke-width="0" width="8.0" x="891.0" y="369.66258" /><rect fill="none" height="569.3331" stroke="#333300" stroke-width="2px" width="20.0" x="890.0" y="50" /></g><g id="My.Chr10" stroke="green"><rect fill="none" height="348.8982" stroke="#333300" stroke-width="2px" width="20.0" x="990.0" y="50" /><text fill="black" font-size="16" stroke-width="0" x="985.0" y="30">My.Chr10</text><polyline fill="none" points="1015.0,55.0 1020.0,55.0 1025.0,45.0 1030.0,45.0" stroke="blue" /><text fill="black" font-size="13" stroke-width="0" x="1035.0" y="45.0">block11</text><rect fill="#0eb83a" height="348.8982" opacity="0.5" stroke="black" stroke-width="0" width="8.0" x="991.0" y="50.0" /><polyline fill="none" points="1015.0,60.56326 1020.0,60.56326 1025.0,50.56326 1030.0,50.56326" stroke="blue" /><text fill="black" font-size="13" stroke-width="0" x="1035.0" y="50.56326">block16</text><rect fill="#808080" height="16.62006" opacity="0.5" stroke="black" stroke-width="0" width="8.0" x="991.0" y="55.56326" /><polyline fill="none" points="1015.0,287.03236000000004 1020.0,287.03236000000004 1025.0,277.03236000000004 1030.0,277.03236000000004" stroke="blue" /><text fill="black" font-size="13" stroke-width="0" x="1035.0" y="277.03236000000004">block17</text><rect fill="#ae7000" height="48.955659999999995" opacity="0.5" stroke="black" stroke-width="0" width="8.0" x="991.0" y="282.03236000000004" /><rect fill="none" height="348.8982" stroke="#333300" stroke-width="2px" width="20.0" x="990.0" y="50" /></g><g id="My.Chr11" stroke="green"><rect fill="none" height="373.49054" stroke="#333300" stroke-width="2px" width="20.0" x="1090.0" y="50" /><text fill="black" font-size="16" stroke-width="0" x="1085.0" y="30">My.Chr11</text><polyline fill="none" points="1115.0,345.75738 1120.0,345.75738 1125.0,335.75738 1130.0,335.75738" stroke="blue" /><text fill="black" font-size="13" stroke-width="0" x="1135.0" y="335.75738">block18</text><rect fill="#16a951" height="13.314779999999985" opacity="0.5" stroke="black" stroke-width="0" width="8.0" x="1091.0" y="340.75738" /><polyline fill="none" points="1115.0,177.02014 1120.0,177.02014 1125.0,167.02014 1130.0,167.02014" stroke="blue" /><text fill="black" font-size="13" stroke-width="0" x="1135.0" y="167.02014">block19</text><rect fill="#be002f" height="12.786760000000015" opacity="0.5" stroke="black" stroke-width="0" width="8.0" x="1091.0" y="172.02014" /><polyline fill="none" points="1115.0,414.97558 1120.0,414.97558 1125.0,404.97558 1130.0,404.97558" stroke="blue" /><text fill="black" font-size="13" stroke-width="0" x="1135.0" y="404.97558">block20</text><rect fill="#be002f" height="10.589440000000025" opacity="0.5" stroke="black" stroke-width="0" width="8.0" x="1091.0" y="409.97558" /><polyline fill="none" points="1115.0,310.97868 1120.0,310.97868 1125.0,300.97868 1130.0,300.97868" stroke="blue" /><text fill="black" font-size="13" stroke-width="0" x="1135.0" y="300.97868">block21</text><rect fill="#75878a" height="7.024400000000014" opacity="0.5" stroke="black" stroke-width="0" width="8.0" x="1091.0" y="305.97868" /><polyline fill="none" points="1115.0,375.1442 1120.0,375.1442 1125.0,365.1442 1130.0,365.1442" stroke="blue" /><text fill="black" font-size="13" stroke-width="0" x="1135.0" y="365.1442">block22</text><rect fill="#75878a" height="13.500659999999982" opacity="0.5" stroke="black" stroke-width="0" width="8.0" x="1091.0" y="370.1442" /><polyline fill="none" points="1115.0,318.6135 1120.0,318.6135 1125.0,308.6135 1130.0,308.6135" stroke="blue" /><text fill="black" font-size="13" stroke-width="0" x="1135.0" y="308.6135">block23</text><rect fill="#75878a" height="25.969420000000014" opacity="0.5" stroke="black" stroke-width="0" width="8.0" x="1091.0" y="313.6135" /><polyline fill="none" points="1115.0,205.00528 1120.0,205.00528 1125.0,195.00528 1130.0,195.00528" stroke="blue" /><text fill="black" font-size="13" stroke-width="0" x="1135.0" y="195.00528">block24</text><rect fill="#ae7000" height="38.4102" opacity="0.5" stroke="black" stroke-width="0" width="8.0" x="1091.0" y="200.00528" /><rect fill="none" height="373.49054" stroke="#333300" stroke-width="2px" width="20.0" x="1090.0" y="50" /></g><g id="My.Chr12" stroke="green"><rect fill="none" height="467.25652" stroke="#333300" stroke-width="2px" width="20.0" x="1190.0" y="50" /><text fill="black" font-size="16" stroke-width="0" x="1185.0" y="30">My.Chr12</text><polyline fill="none" points="1215.0,173.77468 1220.0,173.77468 1225.0,163.77468 1230.0,163.77468" stroke="blue" /><text fill="black" font-size="13" stroke-width="0" x="1235.0" y="163.77468">block25</text><rect fill="#ff3300" height="8.897959999999998" opacity="0.5" stroke="black" stroke-width="0" width="8.0" x="1191.0" y="168.77468" /><polyline fill="none" points="1215.0,220.80212 1220.0,220.80212 1225.0,210.80212 1230.0,210.80212" stroke="blue" /><text fill="black" font-size="13" stroke-width="0" x="1235.0" y="210.80212">block26</text><rect fill="#ff3300" height="8.469940000000008" opacity="0.5" stroke="black" stroke-width="0" width="8.0" x="1191.0" y="215.80212" /><polyline fill="none" points="1215.0,200.0517 1220.0,200.0517 1225.0,190.0517 1230.0,190.0517" stroke="blue" /><text fill="black" font-size="13" stroke-width="0" x="1235.0" y="190.0517">block27</text><rect fill="#be002f" height="21.769499999999994" opacity="0.5" stroke="black" stroke-width="0" width="8.0" x="1191.0" y="195.0517" /><polyline fill="none" points="1215.0,159.88162 1220.0,159.88162 1225.0,149.88162 1230.0,149.88162" stroke="blue" /><text fill="black" font-size="13" stroke-width="0" x="1235.0" y="149.88162">block28</text><rect fill="#56004f" height="6.7827800000000025" opacity="0.5" stroke="black" stroke-width="0" width="8.0" x="1191.0" y="154.88162" /><polyline fill="none" points="1215.0,252.46562 1220.0,252.46562 1225.0,242.46562 1230.0,242.46562" stroke="blue" /><text fill="black" font-size="13" stroke-width="0" x="1235.0" y="242.46562">block29</text><rect fill="#4b5cc4" height="52.64972" opacity="0.5" stroke="black" stroke-width="0" width="8.0" x="1191.0" y="247.46562" /><rect fill="none" height="467.25652" stroke="#333300" stroke-width="2px" width="20.0" x="1190.0" y="50" /></g><g id="My.Chr13" stroke="green"><rect fill="none" height="388.92492" stroke="#333300" stroke-width="2px" width="20.0" x="1290.0" y="50" /><text fill="black" font-size="16" stroke-width="0" x="1285.0" y="30">My.Chr13</text><polyline fill="none" points="1315.0,418.09886 1320.0,418.09886 1325.0,408.09886 1330.0,408.09886" stroke="blue" /><text fill="black" font-size="13" stroke-width="0" x="1335.0" y="408.09886">block30</text><rect fill="#be002f" height="12.829859999999996" opacity="0.5" stroke="black" stroke-width="0" width="8.0" x="1291.0" y="413.09886" /><polyline fill="none" points="1315.0,411.39488 1320.0,411.39488 1325.0,401.39488 1330.0,401.39488" stroke="blue" /><text fill="black" font-size="13" stroke-width="0" x="1335.0" y="401.39488">block31</text><rect fill="#be002f" height="6.21472" opacity="0.5" stroke="black" stroke-width="0" width="8.0" x="1291.0" y="406.39488" /><polyline fill="none" points="1315.0,383.39638 1320.0,383.39638 1325.0,373.39638 1330.0,373.39638" stroke="blue" /><text fill="black" font-size="13" stroke-width="0" x="1335.0" y="373.39638">block32</text><rect fill="#be002f" height="12.428920000000005" opacity="0.5" stroke="black" stroke-width="0" width="8.0" x="1291.0" y="378.39638" /><polyline fill="none" points="1315.0,114.27294 1320.0,114.27294 1325.0,104.27294 1330.0,104.27294" stroke="blue" /><text fill="black" font-size="13" stroke-width="0" x="1335.0" y="104.27294">block33</text><rect fill="#8d4bbb" height="27.03356" opacity="0.5" stroke="black" stroke-width="0" width="8.0" x="1291.0" y="109.27294" /><polyline fill="none" points="1315.0,105.41868 1320.0,105.41868 1325.0,95.41868 1330.0,95.41868" stroke="blue" /><text fill="black" font-size="13" stroke-width="0" x="1335.0" y="95.41868">block34</text><rect fill="#8d4bbb" height="7.644919999999999" opacity="0.5" stroke="black" stroke-width="0" width="8.0" x="1291.0" y="100.41868" /><polyline fill="none" points="1315.0,81.9923 1320.0,81.9923 1325.0,71.9923 1330.0,71.9923" stroke="blue" /><text fill="black" font-size="13" stroke-width="0" x="1335.0" y="71.9923">block35</text><rect fill="#8d4bbb" height="18.55086" opacity="0.5" stroke="black" stroke-width="0" width="8.0" x="1291.0" y="76.9923" /><polyline fill="none" points="1315.0,58.92888 1320.0,58.92888 1325.0,48.92888 1330.0,48.92888" stroke="blue" /><text fill="black" font-size="13" stroke-width="0" x="1335.0" y="48.92888">block36</text><rect fill="#8d4bbb" height="16.15158" opacity="0.5" stroke="black" stroke-width="0" width="8.0" x="1291.0" y="53.92888" /><polyline fill="none" points="1315.0,222.48476 1320.0,222.48476 1325.0,212.48476 1330.0,212.48476" stroke="blue" /><text fill="black" font-size="13" stroke-width="0" x="1335.0" y="212.48476">block37</text><rect fill="#ae7000" height="12.392179999999996" opacity="0.5" stroke="black" stroke-width="0" width="8.0" x="1291.0" y="217.48476" /><rect fill="none" height="388.92492" stroke="#333300" stroke-width="2px" width="20.0" x="1290.0" y="50" /></g></svg>
