<?xml version="1.0" encoding="utf-8" ?>
<svg baseProfile="full" height="900" version="1.1" width="1600" xmlns="http://www.w3.org/2000/svg" xmlns:ev="http://www.w3.org/2001/xml-events" xmlns:xlink="http://www.w3.org/1999/xlink"><defs /><g id="chr1" stroke="green"><rect fill="none" height="502" rx="8px" ry="10px" stroke="#333300" stroke-width="2px" width="20" x="90" y="50" /><text fill="black" font-size="16" stroke-width="0" x="85" y="30">chr1</text><polyline fill="none" points="115,55 125,55 135,35 145,35" stroke="blue" /><text fill="black" font-size="13" stroke-width="0" x="150" y="35">gene1</text><rect fill="#666666" height="50" stroke="black" stroke-width="0" width="18" x="91" y="50" /><polyline fill="none" points="115,145 125,145 135,125 145,125" stroke="blue" /><text fill="black" font-size="13" stroke-width="0" x="150" y="125">gene3</text><rect fill="#0066CC" height="50" stroke="black" stroke-width="0" width="18" x="91" y="140" /><polyline fill="none" points="115,66 125,66 135,46 145,46" stroke="blue" /><text fill="black" font-size="13" stroke-width="0" x="150" y="46">gene4</text><rect fill="#99CC66" height="50" stroke="black" stroke-width="0" width="18" x="91" y="61" /><polyline fill="none" points="115,190 125,190 135,170 145,170" stroke="blue" /><text fill="black" font-size="13" stroke-width="0" x="150" y="170">gene5</text><rect fill="#003366" height="50" stroke="black" stroke-width="0" width="18" x="91" y="185" /><polyline fill="none" points="115,398 125,398 135,378 145,378" stroke="blue" /><text fill="black" font-size="13" stroke-width="0" x="150" y="378">gene6</text><rect fill="#336633" height="50" stroke="black" stroke-width="0" width="18" x="91" y="393" /><polyline fill="none" points="115,159 125,159 135,139 145,139" stroke="blue" /><text fill="black" font-size="13" stroke-width="0" x="150" y="139">gene3</text><rect fill="#FF0033" height="50" stroke="black" stroke-width="0" width="18" x="91" y="154" /><polyline fill="none" points="115,93 125,93 135,73 145,73" stroke="blue" /><text fill="black" font-size="13" stroke-width="0" x="150" y="73">gene5</text><rect fill="#003366" height="50" stroke="black" stroke-width="0" width="18" x="91" y="88" /><polyline fill="none" points="115,159 125,159 135,139 145,139" stroke="blue" /><text fill="black" font-size="13" stroke-width="0" x="150" y="139">gene3</text><rect fill="#FF0033" height="50" stroke="black" stroke-width="0" width="18" x="91" y="154" /><rect fill="none" height="502" rx="8px" ry="10px" stroke="#333300" stroke-width="2px" width="20" x="90" y="50" /></g><g id="chr2" stroke="green"><rect fill="none" height="367" rx="8px" ry="10px" stroke="#333300" stroke-width="2px" width="20" x="190" y="50" /><text fill="black" font-size="16" stroke-width="0" x="185" y="30">chr2</text><polyline fill="none" points="215,77 225,77 235,57 245,57" stroke="blue" /><text fill="black" font-size="13" stroke-width="0" x="250" y="57">gene2</text><rect fill="#99CC00" height="50" stroke="black" stroke-width="0" width="18" x="191" y="72" /><polyline fill="none" points="215,58 225,58 235,38 245,38" stroke="blue" /><text fill="black" font-size="13" stroke-width="0" x="250" y="38">gene1</text><rect fill="#666666" height="50" stroke="black" stroke-width="0" width="18" x="191" y="53" /><polyline fill="none" points="215,236 225,236 235,216 245,216" stroke="blue" /><text fill="black" font-size="13" stroke-width="0" x="250" y="216">gene4</text><rect fill="#99CC66" height="50" stroke="black" stroke-width="0" width="18" x="191" y="231" /><rect fill="none" height="367" rx="8px" ry="10px" stroke="#333300" stroke-width="2px" width="20" x="190" y="50" /></g><g id="chr3" stroke="green"><rect fill="none" height="480" rx="8px" ry="10px" stroke="#333300" stroke-width="2px" width="20" x="290" y="50" /><text fill="black" font-size="16" stroke-width="0" x="285" y="30">chr3</text><polyline fill="none" points="315,55 325,55 335,35 345,35" stroke="blue" /><text fill="black" font-size="13" stroke-width="0" x="350" y="35">gene3</text><rect fill="#FF0033" height="50" stroke="black" stroke-width="0" width="18" x="291" y="50" /><polyline fill="none" points="315,485 325,485 335,465 345,465" stroke="blue" /><text fill="black" font-size="13" stroke-width="0" x="350" y="465">gene3</text><rect fill="#400033" height="50" stroke="black" stroke-width="0" width="18" x="291" y="480" /><polyline fill="none" points="315,77 325,77 335,57 345,57" stroke="blue" /><text fill="black" font-size="13" stroke-width="0" x="350" y="57">gene2</text><rect fill="#99CC00" height="50" stroke="black" stroke-width="0" width="18" x="291" y="72" /><polyline fill="none" points="315,326 325,326 335,306 345,306" stroke="blue" /><text fill="black" font-size="13" stroke-width="0" x="350" y="306">gene3</text><rect fill="#0066CC" height="50" stroke="black" stroke-width="0" width="18" x="291" y="321" /><polyline fill="none" points="315,97 325,97 335,77 345,77" stroke="blue" /><text fill="black" font-size="13" stroke-width="0" x="350" y="77">gene6</text><rect fill="#336633" height="50" stroke="black" stroke-width="0" width="18" x="291" y="92" /><polyline fill="none" points="315,55 325,55 335,35 345,35" stroke="blue" /><text fill="black" font-size="13" stroke-width="0" x="350" y="35">gene3</text><rect fill="#FF0033" height="50" stroke="black" stroke-width="0" width="18" x="291" y="50" /><polyline fill="none" points="315,485 325,485 335,465 345,465" stroke="blue" /><text fill="black" font-size="13" stroke-width="0" x="350" y="465">gene3</text><rect fill="#400033" height="50" stroke="black" stroke-width="0" width="18" x="291" y="480" /><rect fill="none" height="480" rx="8px" ry="10px" stroke="#333300" stroke-width="2px" width="20" x="290" y="50" /></g></svg>