<?xml version="1.0" encoding="utf-8" ?>
<svg baseProfile="full" height="900" version="1.1" width="1500" xmlns="http://www.w3.org/2000/svg" xmlns:ev="http://www.w3.org/2001/xml-events" xmlns:xlink="http://www.w3.org/1999/xlink"><defs /><g id="yu7" stroke="green"><rect fill="none" height="242" rx="8px" ry="10px" stroke="#333300" stroke-width="2px" width="20" x="90" y="50" /><text fill="black" font-size="16" stroke-width="0" x="85" y="30">yu7</text><polyline fill="none" points="115,203 120,203 125,193 130,193" stroke="blue" /><text fill="black" font-size="13" stroke-width="0" x="135" y="193">block88</text><rect fill="#2edfa3" height="75" opacity="0.5" stroke="black" stroke-width="0" width="18" x="91" y="198" /><polyline fill="none" points="115,158 120,158 125,148 130,148" stroke="blue" /><text fill="black" font-size="13" stroke-width="0" x="135" y="148">block89</text><rect fill="#2edfa3" height="91" opacity="0.5" stroke="black" stroke-width="0" width="18" x="91" y="153" /><polyline fill="none" points="115,230 120,230 125,220 130,220" stroke="blue" /><text fill="black" font-size="13" stroke-width="0" x="135" y="220">block90</text><rect fill="#2edfa3" height="60" opacity="0.5" stroke="black" stroke-width="0" width="18" x="91" y="225" /><rect fill="none" height="242" rx="8px" ry="10px" stroke="#333300" stroke-width="2px" width="20" x="90" y="50" /></g><g id="yu10" stroke="green"><rect fill="none" height="353" rx="8px" ry="10px" stroke="#333300" stroke-width="2px" width="20" x="190" y="50" /><text fill="black" font-size="16" stroke-width="0" x="185" y="30">yu10</text><polyline fill="none" points="215,190 220,190 225,180 230,180" stroke="blue" /><text fill="black" font-size="13" stroke-width="0" x="235" y="180">block11</text><rect fill="#0eb83a" height="56" opacity="0.5" stroke="black" stroke-width="0" width="18" x="191" y="185" /><polyline fill="none" points="215,204 220,204 225,194 230,194" stroke="blue" /><text fill="black" font-size="13" stroke-width="0" x="235" y="194">block12</text><rect fill="#0eb83a" height="72" opacity="0.5" stroke="black" stroke-width="0" width="18" x="191" y="199" /><polyline fill="none" points="215,176 220,176 225,166 230,166" stroke="blue" /><text fill="black" font-size="13" stroke-width="0" x="235" y="166">block13</text><rect fill="#0eb83a" height="63" opacity="0.5" stroke="black" stroke-width="0" width="18" x="191" y="171" /><polyline fill="none" points="215,163 220,163 225,153 230,153" stroke="blue" /><text fill="black" font-size="13" stroke-width="0" x="235" y="153">block14</text><rect fill="#0eb83a" height="61" opacity="0.5" stroke="black" stroke-width="0" width="18" x="191" y="158" /><polyline fill="none" points="215,197 220,197 225,187 230,187" stroke="blue" /><text fill="black" font-size="13" stroke-width="0" x="235" y="187">block15</text><rect fill="#0eb83a" height="56" opacity="0.5" stroke="black" stroke-width="0" width="18" x="191" y="192" /><polyline fill="none" points="215,59 220,59 225,49 230,49" stroke="blue" /><text fill="black" font-size="13" stroke-width="0" x="235" y="49">block16</text><rect fill="#808080" height="64" opacity="0.5" stroke="black" stroke-width="0" width="18" x="191" y="54" /><polyline fill="none" points="215,256 220,256 225,246 230,246" stroke="blue" /><text fill="black" font-size="13" stroke-width="0" x="235" y="246">block17</text><rect fill="#ae7000" height="92" opacity="0.5" stroke="black" stroke-width="0" width="18" x="191" y="251" /><rect fill="none" height="353" rx="8px" ry="10px" stroke="#333300" stroke-width="2px" width="20" x="190" y="50" /></g><g id="yu8" stroke="green"><rect fill="none" height="372" rx="8px" ry="10px" stroke="#333300" stroke-width="2px" width="20" x="290" y="50" /><text fill="black" font-size="16" stroke-width="0" x="285" y="30">yu8</text><polyline fill="none" points="315,240 320,240 325,230 330,230" stroke="blue" /><text fill="black" font-size="13" stroke-width="0" x="335" y="230">block91</text><rect fill="#0eb83a" height="68" opacity="0.5" stroke="black" stroke-width="0" width="18" x="291" y="235" /><polyline fill="none" points="315,259 320,259 325,249 330,249" stroke="blue" /><text fill="black" font-size="13" stroke-width="0" x="335" y="249">block92</text><rect fill="#0eb83a" height="67" opacity="0.5" stroke="black" stroke-width="0" width="18" x="291" y="254" /><polyline fill="none" points="315,235 320,235 325,225 330,225" stroke="blue" /><text fill="black" font-size="13" stroke-width="0" x="335" y="225">block93</text><rect fill="#0eb83a" height="53" opacity="0.5" stroke="black" stroke-width="0" width="18" x="291" y="230" /><polyline fill="none" points="315,300 320,300 325,290 330,290" stroke="blue" /><text fill="black" font-size="13" stroke-width="0" x="335" y="290">block94</text><rect fill="#ae7000" height="92" opacity="0.5" stroke="black" stroke-width="0" width="18" x="291" y="295" /><polyline fill="none" points="315,116 320,116 325,106 330,106" stroke="blue" /><text fill="black" font-size="13" stroke-width="0" x="335" y="106">block95</text><rect fill="#ae7000" height="72" opacity="0.5" stroke="black" stroke-width="0" width="18" x="291" y="111" /><rect fill="none" height="372" rx="8px" ry="10px" stroke="#333300" stroke-width="2px" width="20" x="290" y="50" /></g><g id="yu11" stroke="green"><rect fill="none" height="374" rx="8px" ry="10px" stroke="#333300" stroke-width="2px" width="20" x="390" y="50" /><text fill="black" font-size="16" stroke-width="0" x="385" y="30">yu11</text><polyline fill="none" points="415,307 420,307 425,297 430,297" stroke="blue" /><text fill="black" font-size="13" stroke-width="0" x="435" y="297">block18</text><rect fill="#16a951" height="61" opacity="0.5" stroke="black" stroke-width="0" width="18" x="391" y="302" /><polyline fill="none" points="415,161 420,161 425,151 430,151" stroke="blue" /><text fill="black" font-size="13" stroke-width="0" x="435" y="151">block19</text><rect fill="#be002f" height="61" opacity="0.5" stroke="black" stroke-width="0" width="18" x="391" y="156" /><polyline fill="none" points="415,368 420,368 425,358 430,358" stroke="blue" /><text fill="black" font-size="13" stroke-width="0" x="435" y="358">block20</text><rect fill="#be002f" height="59" opacity="0.5" stroke="black" stroke-width="0" width="18" x="391" y="363" /><polyline fill="none" points="415,277 420,277 425,267 430,267" stroke="blue" /><text fill="black" font-size="13" stroke-width="0" x="435" y="267">block21</text><rect fill="#75878a" height="56" opacity="0.5" stroke="black" stroke-width="0" width="18" x="391" y="272" /><polyline fill="none" points="415,333 420,333 425,323 430,323" stroke="blue" /><text fill="black" font-size="13" stroke-width="0" x="435" y="323">block22</text><rect fill="#75878a" height="61" opacity="0.5" stroke="black" stroke-width="0" width="18" x="391" y="328" /><polyline fill="none" points="415,284 420,284 425,274 430,274" stroke="blue" /><text fill="black" font-size="13" stroke-width="0" x="435" y="274">block23</text><rect fill="#75878a" height="72" opacity="0.5" stroke="black" stroke-width="0" width="18" x="391" y="279" /><polyline fill="none" points="415,185 420,185 425,175 430,175" stroke="blue" /><text fill="black" font-size="13" stroke-width="0" x="435" y="175">block24</text><rect fill="#ae7000" height="83" opacity="0.5" stroke="black" stroke-width="0" width="18" x="391" y="180" /><rect fill="none" height="374" rx="8px" ry="10px" stroke="#333300" stroke-width="2px" width="20" x="390" y="50" /></g><g id="yu13" stroke="green"><rect fill="none" height="388" rx="8px" ry="10px" stroke="#333300" stroke-width="2px" width="20" x="490" y="50" /><text fill="black" font-size="16" stroke-width="0" x="485" y="30">yu13</text><polyline fill="none" points="515,370 520,370 525,360 530,360" stroke="blue" /><text fill="black" font-size="13" stroke-width="0" x="535" y="360">block30</text><rect fill="#be002f" height="61" opacity="0.5" stroke="black" stroke-width="0" width="18" x="491" y="365" /><polyline fill="none" points="515,364 520,364 525,354 530,354" stroke="blue" /><text fill="black" font-size="13" stroke-width="0" x="535" y="354">block31</text><rect fill="#be002f" height="55" opacity="0.5" stroke="black" stroke-width="0" width="18" x="491" y="359" /><polyline fill="none" points="515,340 520,340 525,330 530,330" stroke="blue" /><text fill="black" font-size="13" stroke-width="0" x="535" y="330">block32</text><rect fill="#be002f" height="60" opacity="0.5" stroke="black" stroke-width="0" width="18" x="491" y="335" /><polyline fill="none" points="515,106 520,106 525,96 530,96" stroke="blue" /><text fill="black" font-size="13" stroke-width="0" x="535" y="96">block33</text><rect fill="#8d4bbb" height="73" opacity="0.5" stroke="black" stroke-width="0" width="18" x="491" y="101" /><polyline fill="none" points="515,98 520,98 525,88 530,88" stroke="blue" /><text fill="black" font-size="13" stroke-width="0" x="535" y="88">block34</text><rect fill="#8d4bbb" height="56" opacity="0.5" stroke="black" stroke-width="0" width="18" x="491" y="93" /><polyline fill="none" points="515,78 520,78 525,68 530,68" stroke="blue" /><text fill="black" font-size="13" stroke-width="0" x="535" y="68">block35</text><rect fill="#8d4bbb" height="66" opacity="0.5" stroke="black" stroke-width="0" width="18" x="491" y="73" /><polyline fill="none" points="515,58 520,58 525,48 530,48" stroke="blue" /><text fill="black" font-size="13" stroke-width="0" x="535" y="48">block36</text><rect fill="#8d4bbb" height="64" opacity="0.5" stroke="black" stroke-width="0" width="18" x="491" y="53" /><polyline fill="none" points="515,200 520,200 525,190 530,190" stroke="blue" /><text fill="black" font-size="13" stroke-width="0" x="535" y="190">block37</text><rect fill="#ae7000" height="60" opacity="0.5" stroke="black" stroke-width="0" width="18" x="491" y="195" /><rect fill="none" height="388" rx="8px" ry="10px" stroke="#333300" stroke-width="2px" width="20" x="490" y="50" /></g><g id="yu6" stroke="green"><rect fill="none" height="446" rx="8px" ry="10px" stroke="#333300" stroke-width="2px" width="20" x="590" y="50" /><text fill="black" font-size="16" stroke-width="0" x="585" y="30">yu6</text><polyline fill="none" points="615,104 620,104 625,94 630,94" stroke="blue" /><text fill="black" font-size="13" stroke-width="0" x="635" y="94">block84</text><rect fill="#0eb83a" height="60" opacity="0.5" stroke="black" stroke-width="0" width="18" x="591" y="99" /><polyline fill="none" points="615,333 620,333 625,323 630,323" stroke="blue" /><text fill="black" font-size="13" stroke-width="0" x="635" y="323">block85</text><rect fill="#16a951" height="72" opacity="0.5" stroke="black" stroke-width="0" width="18" x="591" y="328" /><polyline fill="none" points="615,276 620,276 625,266 630,266" stroke="blue" /><text fill="black" font-size="13" stroke-width="0" x="635" y="266">block86</text><rect fill="#75878a" height="61" opacity="0.5" stroke="black" stroke-width="0" width="18" x="591" y="271" /><polyline fill="none" points="615,297 620,297 625,287 630,287" stroke="blue" /><text fill="black" font-size="13" stroke-width="0" x="635" y="287">block87</text><rect fill="#75878a" height="86" opacity="0.5" stroke="black" stroke-width="0" width="18" x="591" y="292" /><rect fill="none" height="446" rx="8px" ry="10px" stroke="#333300" stroke-width="2px" width="20" x="590" y="50" /></g><g id="yu12" stroke="green"><rect fill="none" height="456" rx="8px" ry="10px" stroke="#333300" stroke-width="2px" width="20" x="690" y="50" /><text fill="black" font-size="16" stroke-width="0" x="685" y="30">yu12</text><polyline fill="none" points="715,158 720,158 725,148 730,148" stroke="blue" /><text fill="black" font-size="13" stroke-width="0" x="735" y="148">block25</text><rect fill="#ff3300" height="57" opacity="0.5" stroke="black" stroke-width="0" width="18" x="691" y="153" /><polyline fill="none" points="715,199 720,199 725,189 730,189" stroke="blue" /><text fill="black" font-size="13" stroke-width="0" x="735" y="189">block26</text><rect fill="#ff3300" height="57" opacity="0.5" stroke="black" stroke-width="0" width="18" x="691" y="194" /><polyline fill="none" points="715,181 720,181 725,171 730,171" stroke="blue" /><text fill="black" font-size="13" stroke-width="0" x="735" y="171">block27</text><rect fill="#be002f" height="68" opacity="0.5" stroke="black" stroke-width="0" width="18" x="691" y="176" /><polyline fill="none" points="715,146 720,146 725,136 730,136" stroke="blue" /><text fill="black" font-size="13" stroke-width="0" x="735" y="136">block28</text><rect fill="#56004f" height="55" opacity="0.5" stroke="black" stroke-width="0" width="18" x="691" y="141" /><polyline fill="none" points="715,226 720,226 725,216 730,216" stroke="blue" /><text fill="black" font-size="13" stroke-width="0" x="735" y="216">block29</text><rect fill="#4b5cc4" height="95" opacity="0.5" stroke="black" stroke-width="0" width="18" x="691" y="221" /><rect fill="none" height="456" rx="8px" ry="10px" stroke="#333300" stroke-width="2px" width="20" x="690" y="50" /></g><g id="yu5" stroke="green"><rect fill="none" height="481" rx="8px" ry="10px" stroke="#333300" stroke-width="2px" width="20" x="790" y="50" /><text fill="black" font-size="16" stroke-width="0" x="785" y="30">yu5</text><polyline fill="none" points="815,328 820,328 825,318 830,318" stroke="blue" /><text fill="black" font-size="13" stroke-width="0" x="835" y="318">block73</text><rect fill="#00bc12" height="76" opacity="0.5" stroke="black" stroke-width="0" width="18" x="791" y="323" /><polyline fill="none" points="815,390 820,390 825,380 830,380" stroke="blue" /><text fill="black" font-size="13" stroke-width="0" x="835" y="380">block74</text><rect fill="#00bc12" height="63" opacity="0.5" stroke="black" stroke-width="0" width="18" x="791" y="385" /><polyline fill="none" points="815,311 820,311 825,301 830,301" stroke="blue" /><text fill="black" font-size="13" stroke-width="0" x="835" y="301">block75</text><rect fill="#00bc12" height="63" opacity="0.5" stroke="black" stroke-width="0" width="18" x="791" y="306" /><polyline fill="none" points="815,373 820,373 825,363 830,363" stroke="blue" /><text fill="black" font-size="13" stroke-width="0" x="835" y="363">block76</text><rect fill="#00bc12" height="66" opacity="0.5" stroke="black" stroke-width="0" width="18" x="791" y="368" /><polyline fill="none" points="815,407 820,407 825,397 830,397" stroke="blue" /><text fill="black" font-size="13" stroke-width="0" x="835" y="397">block77</text><rect fill="#00bc12" height="61" opacity="0.5" stroke="black" stroke-width="0" width="18" x="791" y="402" /><polyline fill="none" points="815,227 820,227 825,217 830,217" stroke="blue" /><text fill="black" font-size="13" stroke-width="0" x="835" y="217">block78</text><rect fill="#ff3300" height="57" opacity="0.5" stroke="black" stroke-width="0" width="18" x="791" y="222" /><polyline fill="none" points="815,213 820,213 825,203 830,203" stroke="blue" /><text fill="black" font-size="13" stroke-width="0" x="835" y="203">block79</text><rect fill="#ff3300" height="56" opacity="0.5" stroke="black" stroke-width="0" width="18" x="791" y="208" /><polyline fill="none" points="815,184 820,184 825,174 830,174" stroke="blue" /><text fill="black" font-size="13" stroke-width="0" x="835" y="174">block80</text><rect fill="#ff3300" height="57" opacity="0.5" stroke="black" stroke-width="0" width="18" x="791" y="179" /><polyline fill="none" points="815,253 820,253 825,243 830,243" stroke="blue" /><text fill="black" font-size="13" stroke-width="0" x="835" y="243">block81</text><rect fill="#8d4bbb" height="64" opacity="0.5" stroke="black" stroke-width="0" width="18" x="791" y="248" /><polyline fill="none" points="815,250 820,250 825,240 830,240" stroke="blue" /><text fill="black" font-size="13" stroke-width="0" x="835" y="240">block82</text><rect fill="#56004f" height="88" opacity="0.5" stroke="black" stroke-width="0" width="18" x="791" y="245" /><polyline fill="none" points="815,192 820,192 825,182 830,182" stroke="blue" /><text fill="black" font-size="13" stroke-width="0" x="835" y="182">block83</text><rect fill="#56004f" height="59" opacity="0.5" stroke="black" stroke-width="0" width="18" x="791" y="187" /><rect fill="none" height="481" rx="8px" ry="10px" stroke="#333300" stroke-width="2px" width="20" x="790" y="50" /></g><g id="yu3" stroke="green"><rect fill="none" height="488" rx="8px" ry="10px" stroke="#333300" stroke-width="2px" width="20" x="890" y="50" /><text fill="black" font-size="16" stroke-width="0" x="885" y="30">yu3</text><polyline fill="none" points="915,229 920,229 925,219 930,219" stroke="blue" /><text fill="black" font-size="13" stroke-width="0" x="935" y="219">block55</text><rect fill="#16a951" height="67" opacity="0.5" stroke="black" stroke-width="0" width="18" x="891" y="224" /><polyline fill="none" points="915,90 920,90 925,80 930,80" stroke="blue" /><text fill="black" font-size="13" stroke-width="0" x="935" y="80">block56</text><rect fill="#8d4bbb" height="63" opacity="0.5" stroke="black" stroke-width="0" width="18" x="891" y="85" /><polyline fill="none" points="915,271 920,271 925,261 930,261" stroke="blue" /><text fill="black" font-size="13" stroke-width="0" x="935" y="261">block57</text><rect fill="#801dae" height="75" opacity="0.5" stroke="black" stroke-width="0" width="18" x="891" y="266" /><polyline fill="none" points="915,186 920,186 925,176 930,176" stroke="blue" /><text fill="black" font-size="13" stroke-width="0" x="935" y="176">block58</text><rect fill="#808080" height="59" opacity="0.5" stroke="black" stroke-width="0" width="18" x="891" y="181" /><polyline fill="none" points="915,198 920,198 925,188 930,188" stroke="blue" /><text fill="black" font-size="13" stroke-width="0" x="935" y="188">block59</text><rect fill="#808080" height="53" opacity="0.5" stroke="black" stroke-width="0" width="18" x="891" y="193" /><polyline fill="none" points="915,209 920,209 925,199 930,199" stroke="blue" /><text fill="black" font-size="13" stroke-width="0" x="935" y="199">block60</text><rect fill="#808080" height="67" opacity="0.5" stroke="black" stroke-width="0" width="18" x="891" y="204" /><polyline fill="none" points="915,405 920,405 925,395 930,395" stroke="blue" /><text fill="black" font-size="13" stroke-width="0" x="935" y="395">block61</text><rect fill="#e29c45" height="56" opacity="0.5" stroke="black" stroke-width="0" width="18" x="891" y="400" /><polyline fill="none" points="915,395 920,395 925,385 930,385" stroke="blue" /><text fill="black" font-size="13" stroke-width="0" x="935" y="385">block62</text><rect fill="#e29c45" height="58" opacity="0.5" stroke="black" stroke-width="0" width="18" x="891" y="390" /><rect fill="none" height="488" rx="8px" ry="10px" stroke="#333300" stroke-width="2px" width="20" x="890" y="50" /></g><g id="yu9" stroke="green"><rect fill="none" height="545" rx="8px" ry="10px" stroke="#333300" stroke-width="2px" width="20" x="990" y="50" /><text fill="black" font-size="16" stroke-width="0" x="985" y="30">yu9</text><polyline fill="none" points="1015,283 1020,283 1025,273 1030,273" stroke="blue" /><text fill="black" font-size="13" stroke-width="0" x="1035" y="273">block96</text><rect fill="#f35336" height="71" opacity="0.5" stroke="black" stroke-width="0" width="18" x="991" y="278" /><polyline fill="none" points="1015,248 1020,248 1025,238 1030,238" stroke="blue" /><text fill="black" font-size="13" stroke-width="0" x="1035" y="238">block97</text><rect fill="#f35336" height="68" opacity="0.5" stroke="black" stroke-width="0" width="18" x="991" y="243" /><polyline fill="none" points="1015,270 1020,270 1025,260 1030,260" stroke="blue" /><text fill="black" font-size="13" stroke-width="0" x="1035" y="260">block98</text><rect fill="#f35336" height="62" opacity="0.5" stroke="black" stroke-width="0" width="18" x="991" y="265" /><polyline fill="none" points="1015,103 1020,103 1025,93 1030,93" stroke="blue" /><text fill="black" font-size="13" stroke-width="0" x="1035" y="93">block100</text><rect fill="#8d4bbb" height="57" opacity="0.5" stroke="black" stroke-width="0" width="18" x="991" y="98" /><polyline fill="none" points="1015,125 1020,125 1025,115 1030,115" stroke="blue" /><text fill="black" font-size="13" stroke-width="0" x="1035" y="115">block99</text><rect fill="#8d4bbb" height="77" opacity="0.5" stroke="black" stroke-width="0" width="18" x="991" y="120" /><polyline fill="none" points="1015,412 1020,412 1025,402 1030,402" stroke="blue" /><text fill="black" font-size="13" stroke-width="0" x="1035" y="402">block101</text><rect fill="#56004f" height="59" opacity="0.5" stroke="black" stroke-width="0" width="18" x="991" y="407" /><polyline fill="none" points="1015,66 1020,66 1025,56 1030,56" stroke="blue" /><text fill="black" font-size="13" stroke-width="0" x="1035" y="56">block102</text><rect fill="#801dae" height="62" opacity="0.5" stroke="black" stroke-width="0" width="18" x="991" y="61" /><polyline fill="none" points="1015,232 1020,232 1025,222 1030,222" stroke="blue" /><text fill="black" font-size="13" stroke-width="0" x="1035" y="222">block103</text><rect fill="#44cef6" height="61" opacity="0.5" stroke="black" stroke-width="0" width="18" x="991" y="227" /><polyline fill="none" points="1015,310 1020,310 1025,300 1030,300" stroke="blue" /><text fill="black" font-size="13" stroke-width="0" x="1035" y="300">block104</text><rect fill="#177cb0" height="59" opacity="0.5" stroke="black" stroke-width="0" width="18" x="991" y="305" /><polyline fill="none" points="1015,332 1020,332 1025,322 1030,322" stroke="blue" /><text fill="black" font-size="13" stroke-width="0" x="1035" y="322">block105</text><rect fill="#1bd1a5" height="63" opacity="0.5" stroke="black" stroke-width="0" width="18" x="991" y="327" /><rect fill="none" height="545" rx="8px" ry="10px" stroke="#333300" stroke-width="2px" width="20" x="990" y="50" /></g><g id="yu1" stroke="green"><rect fill="none" height="553" rx="8px" ry="10px" stroke="#333300" stroke-width="2px" width="20" x="1090" y="50" /><text fill="black" font-size="16" stroke-width="0" x="1085" y="30">yu1</text><polyline fill="none" points="1115,379 1120,379 1125,369 1130,369" stroke="blue" /><text fill="black" font-size="13" stroke-width="0" x="1135" y="369">block0</text><rect fill="#bacac6" height="56" opacity="0.5" stroke="black" stroke-width="0" width="18" x="1091" y="374" /><polyline fill="none" points="1115,229 1120,229 1125,219 1130,219" stroke="blue" /><text fill="black" font-size="13" stroke-width="0" x="1135" y="219">block1</text><rect fill="#44cef6" height="60" opacity="0.5" stroke="black" stroke-width="0" width="18" x="1091" y="224" /><polyline fill="none" points="1115,239 1120,239 1125,229 1130,229" stroke="blue" /><text fill="black" font-size="13" stroke-width="0" x="1135" y="229">block2</text><rect fill="#44cef6" height="55" opacity="0.5" stroke="black" stroke-width="0" width="18" x="1091" y="234" /><polyline fill="none" points="1115,245 1120,245 1125,235 1130,235" stroke="blue" /><text fill="black" font-size="13" stroke-width="0" x="1135" y="235">block3</text><rect fill="#44cef6" height="59" opacity="0.5" stroke="black" stroke-width="0" width="18" x="1091" y="240" /><polyline fill="none" points="1115,56 1120,56 1125,46 1130,46" stroke="blue" /><text fill="black" font-size="13" stroke-width="0" x="1135" y="46">block4</text><rect fill="#44cef6" height="58" opacity="0.5" stroke="black" stroke-width="0" width="18" x="1091" y="51" /><polyline fill="none" points="1115,139 1120,139 1125,129 1130,129" stroke="blue" /><text fill="black" font-size="13" stroke-width="0" x="1135" y="129">block5</text><rect fill="#4b5cc4" height="108" opacity="0.5" stroke="black" stroke-width="0" width="18" x="1091" y="134" /><polyline fill="none" points="1115,337 1120,337 1125,327 1130,327" stroke="blue" /><text fill="black" font-size="13" stroke-width="0" x="1135" y="327">block6</text><rect fill="#e29c45" height="69" opacity="0.5" stroke="black" stroke-width="0" width="18" x="1091" y="332" /><polyline fill="none" points="1115,354 1120,354 1125,344 1130,344" stroke="blue" /><text fill="black" font-size="13" stroke-width="0" x="1135" y="344">block7</text><rect fill="#e29c45" height="57" opacity="0.5" stroke="black" stroke-width="0" width="18" x="1091" y="349" /><polyline fill="none" points="1115,326 1120,326 1125,316 1130,316" stroke="blue" /><text fill="black" font-size="13" stroke-width="0" x="1135" y="316">block8</text><rect fill="#e29c45" height="60" opacity="0.5" stroke="black" stroke-width="0" width="18" x="1091" y="321" /><polyline fill="none" points="1115,409 1120,409 1125,399 1130,399" stroke="blue" /><text fill="black" font-size="13" stroke-width="0" x="1135" y="399">block10</text><rect fill="#7fecad" height="69" opacity="0.5" stroke="black" stroke-width="0" width="18" x="1091" y="404" /><polyline fill="none" points="1115,428 1120,428 1125,418 1130,418" stroke="blue" /><text fill="black" font-size="13" stroke-width="0" x="1135" y="418">block9</text><rect fill="#7fecad" height="62" opacity="0.5" stroke="black" stroke-width="0" width="18" x="1091" y="423" /><rect fill="none" height="553" rx="8px" ry="10px" stroke="#333300" stroke-width="2px" width="20" x="1090" y="50" /></g><g id="yu4" stroke="green"><rect fill="none" height="564" rx="8px" ry="10px" stroke="#333300" stroke-width="2px" width="20" x="1190" y="50" /><text fill="black" font-size="16" stroke-width="0" x="1185" y="30">yu4</text><polyline fill="none" points="1215,425 1220,425 1225,415 1230,415" stroke="blue" /><text fill="black" font-size="13" stroke-width="0" x="1235" y="415">block63</text><rect fill="#bacac6" height="56" opacity="0.5" stroke="black" stroke-width="0" width="18" x="1191" y="420" /><polyline fill="none" points="1215,399 1220,399 1225,389 1230,389" stroke="blue" /><text fill="black" font-size="13" stroke-width="0" x="1235" y="389">block64</text><rect fill="#bacac6" height="72" opacity="0.5" stroke="black" stroke-width="0" width="18" x="1191" y="394" /><polyline fill="none" points="1215,478 1220,478 1225,468 1230,468" stroke="blue" /><text fill="black" font-size="13" stroke-width="0" x="1235" y="468">block65</text><rect fill="#00bc12" height="62" opacity="0.5" stroke="black" stroke-width="0" width="18" x="1191" y="473" /><polyline fill="none" points="1215,298 1220,298 1225,288 1230,288" stroke="blue" /><text fill="black" font-size="13" stroke-width="0" x="1235" y="288">block66</text><rect fill="#f35336" height="62" opacity="0.5" stroke="black" stroke-width="0" width="18" x="1191" y="293" /><polyline fill="none" points="1215,288 1220,288 1225,278 1230,278" stroke="blue" /><text fill="black" font-size="13" stroke-width="0" x="1235" y="278">block67</text><rect fill="#f35336" height="57" opacity="0.5" stroke="black" stroke-width="0" width="18" x="1191" y="283" /><polyline fill="none" points="1215,277 1220,277 1225,267 1230,267" stroke="blue" /><text fill="black" font-size="13" stroke-width="0" x="1235" y="267">block68</text><rect fill="#f35336" height="60" opacity="0.5" stroke="black" stroke-width="0" width="18" x="1191" y="272" /><polyline fill="none" points="1215,504 1220,504 1225,494 1230,494" stroke="blue" /><text fill="black" font-size="13" stroke-width="0" x="1235" y="494">block69</text><rect fill="#2edfa3" height="84" opacity="0.5" stroke="black" stroke-width="0" width="18" x="1191" y="499" /><polyline fill="none" points="1215,525 1220,525 1225,515 1230,515" stroke="blue" /><text fill="black" font-size="13" stroke-width="0" x="1235" y="515">block70</text><rect fill="#7fecad" height="68" opacity="0.5" stroke="black" stroke-width="0" width="18" x="1191" y="520" /><polyline fill="none" points="1215,502 1220,502 1225,492 1230,492" stroke="blue" /><text fill="black" font-size="13" stroke-width="0" x="1235" y="492">block71</text><rect fill="#7fecad" height="64" opacity="0.5" stroke="black" stroke-width="0" width="18" x="1191" y="497" /><polyline fill="none" points="1215,227 1220,227 1225,217 1230,217" stroke="blue" /><text fill="black" font-size="13" stroke-width="0" x="1235" y="217">block72</text><rect fill="#1bd1a5" height="78" opacity="0.5" stroke="black" stroke-width="0" width="18" x="1191" y="222" /><rect fill="none" height="564" rx="8px" ry="10px" stroke="#333300" stroke-width="2px" width="20" x="1190" y="50" /></g><g id="yu2" stroke="green"><rect fill="none" height="583" rx="8px" ry="10px" stroke="#333300" stroke-width="2px" width="20" x="1290" y="50" /><text fill="black" font-size="16" stroke-width="0" x="1285" y="30">yu2</text><polyline fill="none" points="1315,92 1320,92 1325,82 1330,82" stroke="blue" /><text fill="black" font-size="13" stroke-width="0" x="1335" y="82">block38</text><rect fill="#be002f" height="86" opacity="0.5" stroke="black" stroke-width="0" width="18" x="1291" y="87" /><polyline fill="none" points="1315,59 1320,59 1325,49 1330,49" stroke="blue" /><text fill="black" font-size="13" stroke-width="0" x="1335" y="49">block39</text><rect fill="#be002f" height="59" opacity="0.5" stroke="black" stroke-width="0" width="18" x="1291" y="54" /><polyline fill="none" points="1315,86 1320,86 1325,76 1330,76" stroke="blue" /><text fill="black" font-size="13" stroke-width="0" x="1335" y="76">block40</text><rect fill="#be002f" height="55" opacity="0.5" stroke="black" stroke-width="0" width="18" x="1291" y="81" /><polyline fill="none" points="1315,77 1320,77 1325,67 1330,67" stroke="blue" /><text fill="black" font-size="13" stroke-width="0" x="1335" y="67">block41</text><rect fill="#be002f" height="54" opacity="0.5" stroke="black" stroke-width="0" width="18" x="1291" y="72" /><polyline fill="none" points="1315,180 1320,180 1325,170 1330,170" stroke="blue" /><text fill="black" font-size="13" stroke-width="0" x="1335" y="170">block42</text><rect fill="#801dae" height="88" opacity="0.5" stroke="black" stroke-width="0" width="18" x="1291" y="175" /><polyline fill="none" points="1315,427 1320,427 1325,417 1330,417" stroke="blue" /><text fill="black" font-size="13" stroke-width="0" x="1335" y="417">block43</text><rect fill="#801dae" height="69" opacity="0.5" stroke="black" stroke-width="0" width="18" x="1291" y="422" /><polyline fill="none" points="1315,302 1320,302 1325,292 1330,292" stroke="blue" /><text fill="black" font-size="13" stroke-width="0" x="1335" y="292">block44</text><rect fill="#801dae" height="61" opacity="0.5" stroke="black" stroke-width="0" width="18" x="1291" y="297" /><polyline fill="none" points="1315,235 1320,235 1325,225 1330,225" stroke="blue" /><text fill="black" font-size="13" stroke-width="0" x="1335" y="225">block45</text><rect fill="#801dae" height="64" opacity="0.5" stroke="black" stroke-width="0" width="18" x="1291" y="230" /><polyline fill="none" points="1315,364 1320,364 1325,354 1330,354" stroke="blue" /><text fill="black" font-size="13" stroke-width="0" x="1335" y="354">block46</text><rect fill="#c89b40" height="60" opacity="0.5" stroke="black" stroke-width="0" width="18" x="1291" y="359" /><polyline fill="none" points="1315,465 1320,465 1325,455 1330,455" stroke="blue" /><text fill="black" font-size="13" stroke-width="0" x="1335" y="455">block47</text><rect fill="#c89b40" height="62" opacity="0.5" stroke="black" stroke-width="0" width="18" x="1291" y="460" /><polyline fill="none" points="1315,389 1320,389 1325,379 1330,379" stroke="blue" /><text fill="black" font-size="13" stroke-width="0" x="1335" y="379">block48</text><rect fill="#c89b40" height="55" opacity="0.5" stroke="black" stroke-width="0" width="18" x="1291" y="384" /><polyline fill="none" points="1315,371 1320,371 1325,361 1330,361" stroke="blue" /><text fill="black" font-size="13" stroke-width="0" x="1335" y="361">block49</text><rect fill="#c89b40" height="64" opacity="0.5" stroke="black" stroke-width="0" width="18" x="1291" y="366" /><polyline fill="none" points="1315,373 1320,373 1325,363 1330,363" stroke="blue" /><text fill="black" font-size="13" stroke-width="0" x="1335" y="363">block50</text><rect fill="#ae7000" height="66" opacity="0.5" stroke="black" stroke-width="0" width="18" x="1291" y="368" /><polyline fill="none" points="1315,485 1320,485 1325,475 1330,475" stroke="blue" /><text fill="black" font-size="13" stroke-width="0" x="1335" y="475">block51</text><rect fill="#2edfa3" height="84" opacity="0.5" stroke="black" stroke-width="0" width="18" x="1291" y="480" /><polyline fill="none" points="1315,174 1320,174 1325,164 1330,164" stroke="blue" /><text fill="black" font-size="13" stroke-width="0" x="1335" y="164">block52</text><rect fill="#2edfa3" height="56" opacity="0.5" stroke="black" stroke-width="0" width="18" x="1291" y="169" /><polyline fill="none" points="1315,316 1320,316 1325,306 1330,306" stroke="blue" /><text fill="black" font-size="13" stroke-width="0" x="1335" y="306">block53</text><rect fill="#2edfa3" height="70" opacity="0.5" stroke="black" stroke-width="0" width="18" x="1291" y="311" /><polyline fill="none" points="1315,145 1320,145 1325,135 1330,135" stroke="blue" /><text fill="black" font-size="13" stroke-width="0" x="1335" y="135">block54</text><rect fill="#2edfa3" height="64" opacity="0.5" stroke="black" stroke-width="0" width="18" x="1291" y="140" /><rect fill="none" height="583" rx="8px" ry="10px" stroke="#333300" stroke-width="2px" width="20" x="1290" y="50" /></g></svg>