<?xml version="1.0" encoding="utf-8" ?>
<svg baseProfile="full" height="600px" version="1.1" width="400px" xmlns="http://www.w3.org/2000/svg" xmlns:ev="http://www.w3.org/2001/xml-events" xmlns:xlink="http://www.w3.org/1999/xlink"><defs /><g id="chr1" stroke="green"><line stroke="#333300" stroke-width="3px" x1="100" x2="100" y1="50" y2="502" /><text fill="black" font-size="22" stroke-width="0" x="85" y="30">chr1</text><text fill="black" font-size="13" stroke-width="0" x="115" y="55">gene1</text><rect fill="#666666" height="5" stroke="black" stroke-width="0" width="20" x="90" y="50" /><text fill="black" font-size="13" stroke-width="0" x="115" y="145">gene3</text><rect fill="#0066CC" height="5" stroke="black" stroke-width="0" width="20" x="90" y="140" /><text fill="black" font-size="13" stroke-width="0" x="115" y="66">gene4</text><rect fill="#99CC66" height="5" stroke="black" stroke-width="0" width="20" x="90" y="61" /><text fill="black" font-size="13" stroke-width="0" x="115" y="190">gene5</text><rect fill="#003366" height="5" stroke="black" stroke-width="0" width="20" x="90" y="185" /><text fill="black" font-size="13" stroke-width="0" x="115" y="398">gene6</text><rect fill="#336633" height="5" stroke="black" stroke-width="0" width="20" x="90" y="393" /><text fill="black" font-size="13" stroke-width="0" x="115" y="159">gene3</text><rect fill="#FF0033" height="5" stroke="black" stroke-width="0" width="20" x="90" y="154" /><text fill="black" font-size="13" stroke-width="0" x="115" y="93">gene5</text><rect fill="#003366" height="5" stroke="black" stroke-width="0" width="20" x="90" y="88" /><text fill="black" font-size="13" stroke-width="0" x="115" y="159">gene3</text><rect fill="#FF0033" height="5" stroke="black" stroke-width="0" width="20" x="90" y="154" /></g><g id="chr2" stroke="green"><line stroke="#333300" stroke-width="3px" x1="200" x2="200" y1="50" y2="367" /><text fill="black" font-size="22" stroke-width="0" x="185" y="30">chr2</text><text fill="black" font-size="13" stroke-width="0" x="215" y="77">gene2</text><rect fill="#99CC00" height="5" stroke="black" stroke-width="0" width="20" x="190" y="72" /><text fill="black" font-size="13" stroke-width="0" x="215" y="58">gene1</text><rect fill="#666666" height="5" stroke="black" stroke-width="0" width="20" x="190" y="53" /><text fill="black" font-size="13" stroke-width="0" x="215" y="236">gene4</text><rect fill="#99CC66" height="5" stroke="black" stroke-width="0" width="20" x="190" y="231" /></g><g id="chr3" stroke="green"><line stroke="#333300" stroke-width="3px" x1="300" x2="300" y1="50" y2="480" /><text fill="black" font-size="22" stroke-width="0" x="285" y="30">chr3</text><text fill="black" font-size="13" stroke-width="0" x="315" y="55">gene3</text><rect fill="#FF0033" height="5" stroke="black" stroke-width="0" width="20" x="290" y="50" /><text fill="black" font-size="13" stroke-width="0" x="315" y="485">gene3</text><rect fill="#400033" height="5" stroke="black" stroke-width="0" width="20" x="290" y="480" /><text fill="black" font-size="13" stroke-width="0" x="315" y="77">gene2</text><rect fill="#99CC00" height="5" stroke="black" stroke-width="0" width="20" x="290" y="72" /><text fill="black" font-size="13" stroke-width="0" x="315" y="326">gene3</text><rect fill="#0066CC" height="5" stroke="black" stroke-width="0" width="20" x="290" y="321" /><text fill="black" font-size="13" stroke-width="0" x="315" y="97">gene6</text><rect fill="#336633" height="5" stroke="black" stroke-width="0" width="20" x="290" y="92" /><text fill="black" font-size="13" stroke-width="0" x="315" y="55">gene3</text><rect fill="#FF0033" height="5" stroke="black" stroke-width="0" width="20" x="290" y="50" /><text fill="black" font-size="13" stroke-width="0" x="315" y="485">gene3</text><rect fill="#400033" height="5" stroke="black" stroke-width="0" width="20" x="290" y="480" /></g></svg>