<svg baseProfile="full" height="100%" version="1.1" viewBox="0,0,800,450" width="100%" xmlns="http://www.w3.org/2000/svg" xmlns:ev="http://www.w3.org/2001/xml-events" xmlns:xlink="http://www.w3.org/1999/xlink"><defs /><g id="chr1" stroke="green"><rect fill="none" height="361.930875" stroke="#333300" stroke-width="1px" width="20.0" x="47.0" y="50" /><text fill="black" font-size="11" stroke-width="0" x="42.0" y="30">chr1</text><rect fill="#bacac6" height="4.363887499999976" opacity="1" stroke="black" stroke-width="0" width="8.0" x="48.0" y="283.193" /><rect fill="#44cef6" height="7.290049999999994" opacity="1" stroke="black" stroke-width="0" width="8.0" x="48.0" y="175.5958625" /><rect fill="#44cef6" height="4.263012500000002" opacity="1" stroke="black" stroke-width="0" width="8.0" x="48.0" y="182.92155" /><rect fill="#44cef6" height="6.893924999999996" opacity="1" stroke="black" stroke-width="0" width="8.0" x="48.0" y="187.2465875" /><rect fill="#44cef6" height="6.0695625" opacity="1" stroke="black" stroke-width="0" width="8.0" x="48.0" y="50.8699" /><rect fill="#4b5cc4" height="41.97871249999999" opacity="1" stroke="black" stroke-width="0" width="8.0" x="48.0" y="110.93690000000001" /><rect fill="#e29c45" height="14.353287499999993" opacity="1" stroke="black" stroke-width="0" width="8.0" x="48.0" y="252.780575" /><rect fill="#e29c45" height="5.0632625000000075" opacity="1" stroke="black" stroke-width="0" width="8.0" x="48.0" y="265.217725" /><rect fill="#e29c45" height="7.592787499999986" opacity="1" stroke="black" stroke-width="0" width="8.0" x="48.0" y="245.0991375" /><rect fill="#7fecad" height="13.657399999999967" opacity="1" stroke="black" stroke-width="0" width="8.0" x="48.0" y="304.84745" /><rect fill="#7fecad" height="8.847637500000019" opacity="1" stroke="black" stroke-width="0" width="8.0" x="48.0" y="318.740475" /><rect fill="none" height="361.930875" stroke="#333300" stroke-width="1px" width="20.0" x="47.0" y="50" /></g><g id="chr2" stroke="green"><rect fill="none" height="383.154375" stroke="#333300" stroke-width="1px" width="20.0" x="104.0" y="50" /><text fill="black" font-size="11" stroke-width="0" x="99.0" y="30">chr2</text><rect fill="#be002f" height="26.245675" opacity="1" stroke="black" stroke-width="0" width="8.0" x="105.0" y="77.1548" /><rect fill="#be002f" height="6.5970375" opacity="1" stroke="black" stroke-width="0" width="8.0" x="105.0" y="53.3316875" /><rect fill="#be002f" height="3.78425" opacity="1" stroke="black" stroke-width="0" width="8.0" x="105.0" y="72.637525" /><rect fill="#be002f" height="3.5139500000000012" opacity="1" stroke="black" stroke-width="0" width="8.0" x="105.0" y="66.3862" /><rect fill="#801dae" height="27.780987499999995" opacity="1" stroke="black" stroke-width="0" width="8.0" x="105.0" y="140.0294125" /><rect fill="#801dae" height="13.884362500000009" opacity="1" stroke="black" stroke-width="0" width="8.0" x="105.0" y="317.5562625" /><rect fill="#801dae" height="7.9338750000000005" opacity="1" stroke="black" stroke-width="0" width="8.0" x="105.0" y="228.0952375" /><rect fill="#801dae" height="10.448037499999998" opacity="1" stroke="black" stroke-width="0" width="8.0" x="105.0" y="179.554825" /><rect fill="#c89b40" height="7.236975000000001" opacity="1" stroke="black" stroke-width="0" width="8.0" x="105.0" y="272.5902625" /><rect fill="#c89b40" height="8.706487500000037" opacity="1" stroke="black" stroke-width="0" width="8.0" x="105.0" y="344.8683" /><rect fill="#c89b40" height="4.161300000000011" opacity="1" stroke="black" stroke-width="0" width="8.0" x="105.0" y="290.38815" /><rect fill="#c89b40" height="10.77347499999999" opacity="1" stroke="black" stroke-width="0" width="8.0" x="105.0" y="277.6154375" /><rect fill="#ae7000" height="11.797862500000008" opacity="1" stroke="black" stroke-width="0" width="8.0" x="105.0" y="278.6654625" /><rect fill="#2edfa3" height="24.971524999999986" opacity="1" stroke="black" stroke-width="0" width="8.0" x="105.0" y="359.078975" /><rect fill="#2edfa3" height="4.867324999999994" opacity="1" stroke="black" stroke-width="0" width="8.0" x="105.0" y="135.9577625" /><rect fill="#2edfa3" height="15.091312500000015" opacity="1" stroke="black" stroke-width="0" width="8.0" x="105.0" y="237.806525" /><rect fill="#2edfa3" height="10.374574999999993" opacity="1" stroke="black" stroke-width="0" width="8.0" x="105.0" y="115.0136875" /><rect fill="none" height="383.154375" stroke="#333300" stroke-width="1px" width="20.0" x="104.0" y="50" /></g><g id="chr3" stroke="green"><rect fill="none" height="315.144775" stroke="#333300" stroke-width="1px" width="20.0" x="161.0" y="50" /><text fill="black" font-size="11" stroke-width="0" x="156.0" y="30">chr3</text><rect fill="#16a951" height="12.30227499999998" opacity="1" stroke="black" stroke-width="0" width="8.0" x="162.0" y="175.2402375" /><rect fill="#8d4bbb" height="9.505824999999998" opacity="1" stroke="black" stroke-width="0" width="8.0" x="162.0" y="75.18825" /><rect fill="#801dae" height="18.441337500000003" opacity="1" stroke="black" stroke-width="0" width="8.0" x="162.0" y="205.676025" /><rect fill="#808080" height="6.719637500000005" opacity="1" stroke="black" stroke-width="0" width="8.0" x="162.0" y="144.393925" /><rect fill="#808080" height="2.508099999999999" opacity="1" stroke="black" stroke-width="0" width="8.0" x="162.0" y="153.0922875" /><rect fill="#808080" height="12.6499625" opacity="1" stroke="black" stroke-width="0" width="8.0" x="162.0" y="160.71983749999998" /><rect fill="#e29c45" height="4.96833749999999" opacity="1" stroke="black" stroke-width="0" width="8.0" x="162.0" y="301.95601250000004" /><rect fill="#e29c45" height="6.249850000000009" opacity="1" stroke="black" stroke-width="0" width="8.0" x="162.0" y="295.0531" /><rect fill="none" height="315.144775" stroke="#333300" stroke-width="1px" width="20.0" x="161.0" y="50" /></g><g id="chr4" stroke="green"><rect fill="none" height="369.4605375" stroke="#333300" stroke-width="1px" width="20.0" x="218.0" y="50" /><text fill="black" font-size="11" stroke-width="0" x="213.0" y="30">chr4</text><rect fill="#bacac6" height="4.758437500000014" opacity="1" stroke="black" stroke-width="0" width="8.0" x="219.0" y="316.2572125" /><rect fill="#bacac6" height="16.238612499999988" opacity="1" stroke="black" stroke-width="0" width="8.0" x="219.0" y="297.938" /><rect fill="#00bc12" height="9.296362500000043" opacity="1" stroke="black" stroke-width="0" width="8.0" x="219.0" y="354.2837125" /><rect fill="#f35336" height="9.21912500000002" opacity="1" stroke="black" stroke-width="0" width="8.0" x="219.0" y="224.75275" /><rect fill="#f35336" height="5.334900000000005" opacity="1" stroke="black" stroke-width="0" width="8.0" x="219.0" y="218.1005375" /><rect fill="#f35336" height="7.614812499999999" opacity="1" stroke="black" stroke-width="0" width="8.0" x="219.0" y="209.745925" /><rect fill="#2edfa3" height="24.450874999999996" opacity="1" stroke="black" stroke-width="0" width="8.0" x="219.0" y="373.1290875" /><rect fill="#7fecad" height="13.455299999999966" opacity="1" stroke="black" stroke-width="0" width="8.0" x="219.0" y="388.2751375" /><rect fill="#7fecad" height="10.075499999999977" opacity="1" stroke="black" stroke-width="0" width="8.0" x="219.0" y="371.9111375" /><rect fill="#1bd1a5" height="20.68974999999999" opacity="1" stroke="black" stroke-width="0" width="8.0" x="219.0" y="173.8270625" /><rect fill="none" height="369.4605375" stroke="#333300" stroke-width="1px" width="20.0" x="218.0" y="50" /></g><g id="chr5" stroke="green"><rect fill="none" height="309.848575" stroke="#333300" stroke-width="1px" width="20.0" x="275.0" y="50" /><text fill="black" font-size="11" stroke-width="0" x="270.0" y="30">chr5</text><rect fill="#00bc12" height="19.12933749999999" opacity="1" stroke="black" stroke-width="0" width="8.0" x="276.0" y="246.2252125" /><rect fill="#00bc12" height="9.676087499999994" opacity="1" stroke="black" stroke-width="0" width="8.0" x="276.0" y="291.08445" /><rect fill="#00bc12" height="9.86666249999999" opacity="1" stroke="black" stroke-width="0" width="8.0" x="276.0" y="234.0832875" /><rect fill="#00bc12" height="11.720924999999994" opacity="1" stroke="black" stroke-width="0" width="8.0" x="276.0" y="278.77930000000003" /><rect fill="#00bc12" height="8.271437500000019" opacity="1" stroke="black" stroke-width="0" width="8.0" x="276.0" y="303.4229" /><rect fill="#ff3300" height="5.294187500000007" opacity="1" stroke="black" stroke-width="0" width="8.0" x="276.0" y="173.82707499999998" /><rect fill="#ff3300" height="4.768237499999998" opacity="1" stroke="black" stroke-width="0" width="8.0" x="276.0" y="163.8868375" /><rect fill="#ff3300" height="5.420474999999996" opacity="1" stroke="black" stroke-width="0" width="8.0" x="276.0" y="142.760825" /><rect fill="#8d4bbb" height="10.421037500000011" opacity="1" stroke="black" stroke-width="0" width="8.0" x="276.0" y="192.8862375" /><rect fill="#56004f" height="27.799037499999997" opacity="1" stroke="black" stroke-width="0" width="8.0" x="276.0" y="190.4030375" /><rect fill="#56004f" height="7.056962499999997" opacity="1" stroke="black" stroke-width="0" width="8.0" x="276.0" y="148.737275" /><rect fill="none" height="309.848575" stroke="#333300" stroke-width="1px" width="20.0" x="275.0" y="50" /></g><g id="chr6" stroke="green"><rect fill="none" height="285.035875" stroke="#333300" stroke-width="1px" width="20.0" x="332.0" y="50" /><text fill="black" font-size="11" stroke-width="0" x="327.0" y="30">chr6</text><rect fill="#0eb83a" height="7.564125000000004" opacity="1" stroke="black" stroke-width="0" width="8.0" x="333.0" y="85.6971" /><rect fill="#16a951" height="16.457750000000004" opacity="1" stroke="black" stroke-width="0" width="8.0" x="333.0" y="250.3573125" /><rect fill="#75878a" height="8.490737499999994" opacity="1" stroke="black" stroke-width="0" width="8.0" x="333.0" y="209.50715" /><rect fill="#75878a" height="25.9191625" opacity="1" stroke="black" stroke-width="0" width="8.0" x="333.0" y="224.2592625" /><rect fill="none" height="285.035875" stroke="#333300" stroke-width="1px" width="20.0" x="332.0" y="50" /></g><g id="chr7" stroke="green"><rect fill="none" height="138.0141" stroke="#333300" stroke-width="1px" width="20.0" x="389.0" y="50" /><text fill="black" font-size="11" stroke-width="0" x="384.0" y="30">chr7</text><rect fill="#2edfa3" height="75.51410000000001" opacity="1" stroke="black" stroke-width="0" width="8.0" x="390.0" y="112.5" /><rect fill="none" height="138.0141" stroke="#333300" stroke-width="1px" width="20.0" x="389.0" y="50" /></g><g id="chr8" stroke="green"><rect fill="none" height="232.1319625" stroke="#333300" stroke-width="1px" width="20.0" x="446.0" y="50" /><text fill="black" font-size="11" stroke-width="0" x="441.0" y="30">chr8</text><rect fill="#0eb83a" height="13.324599999999975" opacity="1" stroke="black" stroke-width="0" width="8.0" x="447.0" y="183.17715" /><rect fill="#0eb83a" height="12.915012499999989" opacity="1" stroke="black" stroke-width="0" width="8.0" x="447.0" y="197.1100625" /><rect fill="#0eb83a" height="2.639512499999995" opacity="1" stroke="black" stroke-width="0" width="8.0" x="447.0" y="179.92935" /><rect fill="#ae7000" height="30.237412500000005" opacity="1" stroke="black" stroke-width="0" width="8.0" x="447.0" y="226.1195375" /><rect fill="#ae7000" height="16.0377" opacity="1" stroke="black" stroke-width="0" width="8.0" x="447.0" y="94.31722500000001" /><rect fill="none" height="232.1319625" stroke="#333300" stroke-width="1px" width="20.0" x="446.0" y="50" /></g><g id="chr9" stroke="green"><rect fill="none" height="355.8331875" stroke="#333300" stroke-width="1px" width="20.0" x="503.0" y="50" /><text fill="black" font-size="11" stroke-width="0" x="498.0" y="30">chr9</text><rect fill="#f35336" height="15.237862500000006" opacity="1" stroke="black" stroke-width="0" width="8.0" x="504.0" y="214.5630375" /><rect fill="#f35336" height="13.332187500000003" opacity="1" stroke="black" stroke-width="0" width="8.0" x="504.0" y="189.4052875" /><rect fill="#f35336" height="8.644374999999997" opacity="1" stroke="black" stroke-width="0" width="8.0" x="504.0" y="204.9022" /><rect fill="#8d4bbb" height="5.53745" opacity="1" stroke="black" stroke-width="0" width="8.0" x="504.0" y="84.59205" /><rect fill="#8d4bbb" height="20.099987500000005" opacity="1" stroke="black" stroke-width="0" width="8.0" x="504.0" y="101.01425" /><rect fill="#56004f" height="6.651999999999987" opacity="1" stroke="black" stroke-width="0" width="8.0" x="504.0" y="307.2575" /><rect fill="#801dae" height="8.991875" opacity="1" stroke="black" stroke-width="0" width="8.0" x="504.0" y="58.03745" /><rect fill="#44cef6" height="7.9337625" opacity="1" stroke="black" stroke-width="0" width="8.0" x="504.0" y="177.4289125" /><rect fill="#177cb0" height="7.0790250000000015" opacity="1" stroke="black" stroke-width="0" width="8.0" x="504.0" y="233.586825" /><rect fill="#1bd1a5" height="10.0433625" opacity="1" stroke="black" stroke-width="0" width="8.0" x="504.0" y="249.7891125" /><rect fill="none" height="355.8331875" stroke="#333300" stroke-width="1px" width="20.0" x="503.0" y="50" /></g><g id="chr10" stroke="green"><rect fill="none" height="218.061375" stroke="#333300" stroke-width="1px" width="20.0" x="560.0" y="50" /><text fill="black" font-size="11" stroke-width="0" x="555.0" y="30">chr10</text><rect fill="#0eb83a" height="218.061375" opacity="1" stroke="black" stroke-width="0" width="8.0" x="561.0" y="50.0" /><rect fill="#808080" height="10.3875375" opacity="1" stroke="black" stroke-width="0" width="8.0" x="561.0" y="53.4770375" /><rect fill="#ae7000" height="30.597287499999993" opacity="1" stroke="black" stroke-width="0" width="8.0" x="561.0" y="195.020225" /><rect fill="none" height="218.061375" stroke="#333300" stroke-width="1px" width="20.0" x="560.0" y="50" /></g><g id="chr11" stroke="green"><rect fill="none" height="233.4315875" stroke="#333300" stroke-width="1px" width="20.0" x="617.0" y="50" /><text fill="black" font-size="11" stroke-width="0" x="612.0" y="30">chr11</text><rect fill="#16a951" height="8.321737499999983" opacity="1" stroke="black" stroke-width="0" width="8.0" x="618.0" y="231.7233625" /><rect fill="#be002f" height="7.991725000000002" opacity="1" stroke="black" stroke-width="0" width="8.0" x="618.0" y="126.2625875" /><rect fill="#be002f" height="6.618400000000008" opacity="1" stroke="black" stroke-width="0" width="8.0" x="618.0" y="274.9847375" /><rect fill="#75878a" height="4.390250000000009" opacity="1" stroke="black" stroke-width="0" width="8.0" x="618.0" y="209.986675" /><rect fill="#75878a" height="8.43791250000001" opacity="1" stroke="black" stroke-width="0" width="8.0" x="618.0" y="250.090125" /><rect fill="#75878a" height="16.230887499999994" opacity="1" stroke="black" stroke-width="0" width="8.0" x="618.0" y="214.7584375" /><rect fill="#ae7000" height="24.006375000000006" opacity="1" stroke="black" stroke-width="0" width="8.0" x="618.0" y="143.7533" /><rect fill="none" height="233.4315875" stroke="#333300" stroke-width="1px" width="20.0" x="617.0" y="50" /></g><g id="chr12" stroke="green"><rect fill="none" height="292.035325" stroke="#333300" stroke-width="1px" width="20.0" x="674.0" y="50" /><text fill="black" font-size="11" stroke-width="0" x="669.0" y="30">chr12</text><rect fill="#ff3300" height="5.561225000000007" opacity="1" stroke="black" stroke-width="0" width="8.0" x="675.0" y="124.234175" /><rect fill="#ff3300" height="5.293712500000012" opacity="1" stroke="black" stroke-width="0" width="8.0" x="675.0" y="153.626325" /><rect fill="#be002f" height="13.605937499999996" opacity="1" stroke="black" stroke-width="0" width="8.0" x="675.0" y="140.6573125" /><rect fill="#56004f" height="4.2392375000000015" opacity="1" stroke="black" stroke-width="0" width="8.0" x="675.0" y="115.5510125" /><rect fill="#4b5cc4" height="32.906075000000016" opacity="1" stroke="black" stroke-width="0" width="8.0" x="675.0" y="173.4160125" /><rect fill="none" height="292.035325" stroke="#333300" stroke-width="1px" width="20.0" x="674.0" y="50" /></g><g id="chr13" stroke="green"><rect fill="none" height="243.078075" stroke="#333300" stroke-width="1px" width="20.0" x="731.0" y="50" /><text fill="black" font-size="11" stroke-width="0" x="726.0" y="30">chr13</text><rect fill="#be002f" height="8.018662500000005" opacity="1" stroke="black" stroke-width="0" width="8.0" x="732.0" y="276.93678750000004" /><rect fill="#be002f" height="3.8841999999999928" opacity="1" stroke="black" stroke-width="0" width="8.0" x="732.0" y="272.7468" /><rect fill="#be002f" height="7.76807500000001" opacity="1" stroke="black" stroke-width="0" width="8.0" x="732.0" y="255.2477375" /><rect fill="#8d4bbb" height="16.895975" opacity="1" stroke="black" stroke-width="0" width="8.0" x="732.0" y="87.04558750000001" /><rect fill="#8d4bbb" height="4.778074999999998" opacity="1" stroke="black" stroke-width="0" width="8.0" x="732.0" y="81.511675" /><rect fill="#8d4bbb" height="11.5942875" opacity="1" stroke="black" stroke-width="0" width="8.0" x="732.0" y="66.8701875" /><rect fill="#8d4bbb" height="10.094737499999999" opacity="1" stroke="black" stroke-width="0" width="8.0" x="732.0" y="52.45555" /><rect fill="#ae7000" height="7.7451124999999905" opacity="1" stroke="black" stroke-width="0" width="8.0" x="732.0" y="154.677975" /><rect fill="none" height="243.078075" stroke="#333300" stroke-width="1px" width="20.0" x="731.0" y="50" /></g><rect fill="none" height="450" stroke="#FFF000" stroke-width="5px" width="800" x="0" y="0" /></svg>